<svg xmlns="http://www.w3.org/2000/svg" version="1.1" xmlns:xlink="http://www.w3.org/1999/xlink" width="512" height="512" x="0" y="0" viewBox="0 0 512 512" style="enable-background:new 0 0 512 512" xml:space="preserve" class=""><g><path fill="#ffffff" d="m283.127 20.586-11.624-8.178a26.942 26.942 0 0 0-31.006 0l-11.624 8.178A300.047 300.047 0 0 1 75.74 74.6c-14.169.924-25.19 12.686-25.19 26.885v70.456c0 117.303 54.775 227.879 148.092 298.956l33.583 25.579c14.045 10.698 33.505 10.698 47.55 0l33.583-25.579C406.675 399.82 461.45 289.245 461.45 171.941v-70.456c0-14.2-11.021-25.962-25.19-26.885a300.047 300.047 0 0 1-153.133-54.014z" opacity="1" data-original="#eaf2ff" class=""></path><path fill="#ffffff" d="M436.26 74.6a300.012 300.012 0 0 1-46.223-6.658c9.153 4.335 15.417 13.651 15.417 24.355v70.456c0 117.303-54.775 227.879-148.092 298.956l-33.583 25.579c-.612.466-1.238.905-1.87 1.33l10.316 7.858c14.045 10.698 33.505 10.698 47.55 0l33.583-25.579C406.675 399.82 461.45 289.245 461.45 171.941v-70.456c0-14.2-11.02-25.962-25.19-26.885z" opacity="1" data-original="#e8e8e8" class=""></path><path fill="#e0e0e0" d="M226.479 433.075c-40.19-30.611-73.286-70.719-95.711-115.989-22.425-45.269-34.278-95.901-34.278-146.42v-44.332c0-4.816 3.777-8.761 8.586-9.02 62.551-3.374 128.108-42.08 146.112-53.442a9.005 9.005 0 0 1 9.624 0c18.003 11.362 83.56 50.068 146.112 53.442 4.809.259 8.586 4.204 8.586 9.02v44.332c0 50.52-11.853 101.151-34.278 146.42-22.425 45.27-55.521 85.378-95.71 115.989l-24.046 18.315a9.037 9.037 0 0 1-10.952 0z" opacity="1" data-original="#b3e59f" class=""></path><path fill="#d1d1d1" d="M406.924 117.313c-62.551-3.374-128.108-42.08-146.112-53.442a8.997 8.997 0 0 0-5.003-1.38v390.732a9.01 9.01 0 0 0 5.667-1.833l24.046-18.315c40.189-30.611 73.285-70.719 95.71-115.989 22.425-45.269 34.278-95.901 34.278-146.42v-44.332c0-4.817-3.777-8.762-8.586-9.021z" opacity="1" data-original="#95d6a4" class=""></path><path fill="#e2e2e2" d="M436.26 74.6a300.012 300.012 0 0 1-46.223-6.658c9.153 4.335 15.417 13.651 15.417 24.355v70.456c0 117.303-54.775 227.879-148.092 298.956l-33.583 25.579c-.612.466-1.238.905-1.87 1.33l10.316 7.858c14.045 10.698 33.505 10.698 47.55 0l33.583-25.579C406.675 399.82 461.45 289.245 461.45 171.941v-70.456c0-14.2-11.02-25.962-25.19-26.885z" opacity="1" data-original="#c9e0fd" class=""></path><path fill="#77ce8e" d="M381.232 317.086c22.425-45.269 34.278-95.901 34.278-146.42v-44.332c0-4.816-3.777-8.761-8.586-9.02-.49-.026-.98-.061-1.47-.092v45.532c0 91.584-33.39 179.067-92.443 246.853 27.874-26.573 51.144-58.048 68.221-92.521z" opacity="1" data-original="#77ce8e" class=""></path><path d="M436.766 67.104a292.475 292.475 0 0 1-149.32-52.669L275.82 6.256c-11.855-8.342-27.786-8.342-39.641 0l-11.625 8.179a292.475 292.475 0 0 1-149.32 52.669c-18.059 1.177-32.205 16.276-32.205 34.373v70.463c0 58.71 13.775 117.549 39.835 170.158 26.061 52.609 64.522 99.22 111.227 134.794C221.385 495.349 231.486 512 256 512s34.614-16.65 61.908-35.108c46.705-35.574 85.166-82.185 111.227-134.794S468.97 230.65 468.97 171.94v-70.463c.001-18.098-14.146-33.196-32.204-34.373zm17.203 104.836c0 56.412-13.236 112.949-38.277 163.499s-61.997 95.337-106.874 129.519l-33.586 25.582c-11.324 8.625-27.142 8.625-38.466 0l-33.586-25.582c-44.877-34.182-81.834-78.969-106.874-129.519-25.04-50.549-38.275-107.087-38.275-163.499v-70.463c0-10.216 7.985-18.739 18.179-19.403a307.468 307.468 0 0 0 156.976-55.37c9.286-5.756 13.427-11.71 22.814-11.71 9.395 0 13.561 5.975 22.813 11.71a307.472 307.472 0 0 0 156.977 55.37c10.194.665 18.18 9.187 18.18 19.403v70.463z" fill="#000000" opacity="1" data-original="#000000" class=""></path><path d="M407.342 109.817c-60.525-3.264-124.393-40.856-142.526-52.3-5.37-3.39-12.302-3.363-17.632 0-18.133 11.444-82.001 49.036-142.526 52.3-8.795.474-15.684 7.727-15.684 16.511v37.5c0 4.143 3.358 7.501 7.501 7.501s7.501-3.358 7.501-7.501v-37.5c0-.814.655-1.486 1.49-1.531 57.865-3.121 117.786-35.328 142.843-50.363V440.3l-17.287-13.168c-39.28-29.918-71.627-69.119-93.544-113.363-17.557-35.443-28.706-75.143-32.24-114.808a7.497 7.497 0 0 0-8.137-6.805 7.5 7.5 0 0 0-6.805 8.137c3.697 41.5 15.364 83.042 33.739 120.136 22.937 46.303 56.789 87.327 97.897 118.638l24.047 18.317c5.728 4.363 13.989 4.612 20.043 0l24.048-18.317a336.356 336.356 0 0 0 32.615-28.36 7.5 7.5 0 0 0-10.549-10.665 321.444 321.444 0 0 1-31.155 27.091l-17.67 13.459V74.205c24.829 14.936 85.068 47.455 143.225 50.592.836.045 1.49.717 1.49 1.531v44.336c0 49.375-11.585 98.861-33.502 143.105-10.53 21.258-23.536 41.476-38.657 60.093a7.5 7.5 0 0 0 11.644 9.458c15.821-19.479 29.432-40.64 40.455-62.892 22.937-46.303 35.061-98.091 35.061-149.764v-44.336c-.001-8.785-6.89-16.037-15.685-16.511z" fill="#000000" opacity="1" data-original="#000000" class=""></path></g></svg>