<svg xmlns="http://www.w3.org/2000/svg" version="1.1" xmlns:xlink="http://www.w3.org/1999/xlink" width="512" height="512" x="0" y="0" viewBox="0 0 32 32" style="enable-background:new 0 0 512 512" xml:space="preserve" class=""><g><g fill="#61ccf8" stroke="black" stroke-width="1.2"><path d="M27.95 18.51c-.11-.25-.32-.45-.58-.55-.25-.09-.54-.07-.79.05l-2.752 1.355-.907-.524.401-.107a1 1 0 1 0-.518-1.932l-2.332.625L18 16l2.471-1.427 2.332.625a1 1 0 0 0 .518-1.932l-.401-.107.907-.524 2.752 1.355a.997.997 0 0 0 .79.05c.26-.1.47-.3.58-.55l1.96-4.6c.12-.29.1-.62-.05-.89a.999.999 0 0 0-.75-.49l-4.96-.6c-.27-.03-.55.05-.76.22-.21.18-.34.43-.36.71l-.195 3.059-.913.527.107-.4a1 1 0 1 0-1.932-.518l-.625 2.332L17 14.268v-2.854l1.707-1.707a.999.999 0 1 0-1.414-1.414L17 8.586V7.53l2.55-1.7c.23-.15.39-.39.44-.66.04-.27-.03-.55-.19-.77l-3-4c-.38-.5-1.22-.5-1.6 0l-3 4c-.16.22-.23.5-.19.77.05.27.21.51.44.66L15 7.53v1.056l-.293-.293a.999.999 0 1 0-1.414 1.414L15 11.414v2.854l-2.472-1.427-.625-2.332a1 1 0 1 0-1.932.518l.107.4-.913-.527-.195-3.06c-.02-.28-.15-.53-.36-.71-.21-.17-.49-.25-.76-.22l-4.96.6c-.31.03-.59.22-.75.49-.15.27-.17.6-.05.89l1.96 4.6c.11.25.32.45.58.55a.997.997 0 0 0 .79-.05l2.752-1.355.907.524-.401.107a1 1 0 1 0 .518 1.932l2.332-.625L14 16l-2.471 1.427-2.332-.625a1 1 0 1 0-.518 1.932l.401.107-.907.524L5.42 18.01a.992.992 0 0 0-.79-.05c-.26.1-.47.3-.58.55l-1.96 4.6c-.12.29-.1.62.05.89.16.27.44.46.75.49l4.96.6a.985.985 0 0 0 .76-.22c.21-.18.34-.43.36-.71l.195-3.059.913-.527-.107.4a1 1 0 1 0 1.932.518l.625-2.332L15 17.732v2.854l-1.707 1.707a.999.999 0 1 0 1.414 1.414l.293-.293v1.056l-2.55 1.7c-.23.15-.39.39-.44.66-.04.27.03.55.19.77l3 4c.19.25.49.4.8.4s.61-.15.8-.4l3-4c.16-.22.23-.5.19-.77a1.01 1.01 0 0 0-.44-.66L17 24.47v-1.056l.293.293a.997.997 0 0 0 1.414 0 .999.999 0 0 0 0-1.414L17 20.586v-2.854l2.472 1.427.625 2.332a1 1 0 1 0 1.932-.518l-.107-.4.913.527.195 3.059c.02.28.15.53.36.71.18.15.4.23.64.23.04 0 .08 0 .12-.01l4.96-.6c.31-.03.59-.22.75-.49.15-.27.17-.6.05-.89zM8.02 4a1 1 0 1 0 0-2h-.01c-.552 0-.995.447-.995 1s.453 1 1.005 1zM8.02 28h-.01c-.552 0-.995.447-.995 1s.453 1 1.005 1a1 1 0 1 0 0-2z" fill="#8bd8ff"  opacity="1" data-original="#61ccf8" class=""></path><path d="M3.02 16a1 1 0 0 0-1-1h-.01c-.552 0-.995.447-.995 1s.453 1 1.005 1 1-.447 1-1zM24.02 4a1 1 0 1 0 0-2h-.01c-.552 0-.995.447-.995 1s.453 1 1.005 1zM24.02 28h-.01c-.552 0-.995.447-.995 1s.453 1 1.005 1a1 1 0 1 0 0-2zM30.02 15h-.01c-.552 0-.995.447-.995 1s.453 1 1.005 1a1 1 0 1 0 0-2z" fill="#8bd8ff"  opacity="1" data-original="#61ccf8" class=""></path></g></g></svg>