<svg xmlns="http://www.w3.org/2000/svg" version="1.1" xmlns:xlink="http://www.w3.org/1999/xlink" width="512" height="512" x="0" y="0" viewBox="0 0 512 512" style="enable-background:new 0 0 512 512" xml:space="preserve" ><g><path fill="#ff4545" stroke="black" stroke-width="15" d="M432 312c0 120-78.798 176-176 176S80 424 80 312c0 0 0-64 48-104 0 0 0 64 32 88 0 0-16-192 168-272 0 0-64 184 24 240 0 0 16-72 16-128 0 0 64 16 64 176z" opacity="1" data-original="#eb423f" ></path><path fill="#ff9878" d="M352 392c0 66.207-41.371 96-95 96s-97-34.207-97-96c0 0 0-32 24-56 0 0-1.655 34.759 16 48 0 0 8-96 80-136 0 0-16.552 81.103 32 112 0 0 8-33.103 8-64 0 0 32 7.724 32 96z" opacity="1" data-original="#ffd33a" ></path><g fill="#eb423f"><path d="M80 200s0-64 48-80c0 0-8 80-48 80zM424 120s0-64-48-80c0 0 8 80 48 80z" fill="#ff4545" opacity="1" data-original="#eb423f" stroke="black" stroke-width="15"></path></g></g></svg>