<svg xmlns="http://www.w3.org/2000/svg" version="1.1" xmlns:xlink="http://www.w3.org/1999/xlink" width="512" height="512" x="0" y="0" viewBox="0 0 63.943 63.943" style="enable-background:new 0 0 512 512; transform: scaleX(0.9)" xml:space="preserve" class=""><g><path fill="#ff5151" d="M46.992 3.503c-5.846-.323-11.38 2.15-15.02 6.667-3.64-4.516-9.162-6.991-15.021-6.667C7.299 4.038.011 12.391 0 22.934-.028 49.891 31.348 60.318 31.665 60.42a1.005 1.005 0 0 0 .614 0c.317-.102 31.693-10.529 31.665-37.486-.011-10.543-7.299-18.896-16.952-19.431z" opacity="1" data-original="#ff3f62" class=""></path><g fill="#ffa5b5"><path d="M56.288 16.953a1 1 0 0 1-.886-.534c-2.039-3.872-5.577-6.222-9.705-6.449a1 1 0 1 1 .11-1.997c4.776.263 9.024 3.072 11.365 7.514a1 1 0 0 1-.884 1.466zM57.971 22.788c-.516 0-.952-.396-.996-.918a14.612 14.612 0 0 0-.348-2.184 1 1 0 0 1 1.945-.465c.193.81.327 1.646.396 2.485a1.001 1.001 0 0 1-.997 1.082zM27.998 52.548a.992.992 0 0 1-.356-.066c-.477-.182-11.76-4.566-17.453-14.303a1 1 0 0 1 1.726-1.01c5.331 9.117 16.328 13.402 16.438 13.444a1 1 0 0 1-.355 1.935z" fill="#fd8080" opacity="1" data-original="#ffa5b5" class=""></path></g></g></svg>