<svg xmlns="http://www.w3.org/2000/svg" version="1.1" xmlns:xlink="http://www.w3.org/1999/xlink" width="512" height="512" x="0" y="0" viewBox="0 0 511 511" style="enable-background:new 0 0 512 512" xml:space="preserve" class=""><g><path d="M480.967 219.162c-9.788 0-17.924 7.024-19.673 16.305h-44.482c-3.997-33.133-17.969-63.19-38.818-87.092l39.871-39.871c8.311.492 16.787-2.431 23.137-8.782 11.788-11.788 11.788-30.899 0-42.687-11.788-11.788-30.899-11.788-42.687 0-6.35 6.35-9.273 14.826-8.782 23.137L348.105 121.6c-21.095-14.657-45.826-24.448-72.572-27.737V49.707c9.28-1.749 16.305-9.885 16.305-19.673 0-11.064-8.969-20.033-20.033-20.033h-32.609c-11.064 0-20.033 8.969-20.033 20.033 0 9.788 7.024 17.924 16.305 19.673v44.156c-26.746 3.289-51.477 13.079-72.572 27.737l-41.428-41.428c.492-8.311-2.431-16.787-8.782-23.137-11.788-11.788-30.899-11.788-42.687 0s-11.788 30.899 0 42.687c6.35 6.35 14.826 9.273 23.137 8.782l39.871 39.871c-20.848 23.903-34.82 53.96-38.818 87.092H49.707c-1.749-9.28-9.885-16.305-19.673-16.305-11.064 0-20.033 8.969-20.033 20.033v32.609c0 11.064 8.969 20.033 20.033 20.033 9.788 0 17.924-7.024 19.673-16.305h44.566c4.114 32.843 18.036 62.632 38.732 86.358l-39.869 39.869c-8.311-.492-16.787 2.431-23.137 8.782-11.788 11.788-11.788 30.899 0 42.687 11.788 11.788 30.899 11.788 42.687 0 6.35-6.35 9.273-14.826 8.782-23.137l41.428-41.428c21.096 14.657 45.827 24.448 72.572 27.737v44.892c-9.28 1.749-16.305 9.885-16.305 19.673 0 11.064 8.969 20.033 20.033 20.033h32.609c11.064 0 20.033-8.969 20.033-20.033 0-9.788-7.024-17.924-16.305-19.673V416.4c26.746-3.289 51.476-13.08 72.572-27.737l41.428 41.428c-.492 8.311 2.431 16.787 8.782 23.137 11.788 11.788 30.899 11.788 42.687 0 11.788-11.788 11.788-30.899 0-42.687-6.35-6.35-14.826-9.273-23.137-8.782l-39.869-39.869c20.696-23.726 34.618-53.515 38.732-86.358h44.566c1.749 9.28 9.885 16.305 19.673 16.305 11.064 0 20.033-8.969 20.033-20.033v-32.609c0-11.064-8.969-20.033-20.033-20.033z" style="" fill="#928b2c" data-original="#c193dc" class="" opacity="1"></path><circle cx="199.833" cy="198.065" r="31.159" style="" fill="#ffcd69" data-original="#ffcd69" class=""></circle><circle cx="311.167" cy="312.199" r="31.159" style="" fill="#ffcd69" data-original="#ffcd69" class=""></circle><circle cx="190.617" cy="315.008" r="20.033" style="" fill="#d5ea79" data-original="#d5ea79" class=""></circle><circle cx="320.383" cy="195.256" r="20.033" style="" fill="#d5ea79" data-original="#d5ea79" class=""></circle><path d="M480.967 219.162h0c-9.788 0-17.924 7.024-19.673 16.305h-44.482c-3.997-33.133-17.969-63.19-38.818-87.092l39.871-39.871c8.311.492 16.787-2.431 23.137-8.782 11.788-11.788 11.788-30.899 0-42.687-11.788-11.788-30.899-11.788-42.687 0-6.35 6.35-9.273 14.826-8.782 23.137L348.105 121.6c-21.095-14.657-45.826-24.448-72.572-27.737V49.707c9.28-1.749 16.305-9.885 16.305-19.673v0c0-11.064-8.969-20.033-20.033-20.033h-32.609c-11.064 0-20.033 8.969-20.033 20.033v0c0 9.788 7.024 17.924 16.305 19.673v44.156c-26.746 3.289-51.477 13.079-72.572 27.737l-41.428-41.428c.492-8.311-2.431-16.787-8.782-23.137-11.788-11.788-30.899-11.788-42.687 0s-11.788 30.899 0 42.687c6.35 6.35 14.826 9.273 23.137 8.782l39.871 39.871c-20.848 23.903-34.82 53.96-38.818 87.092H49.707c-1.749-9.28-9.885-16.305-19.673-16.305h0c-11.064 0-20.033 8.969-20.033 20.033v32.609c0 11.064 8.969 20.033 20.033 20.033h0c9.788 0 17.924-7.024 19.673-16.305h44.566c4.114 32.843 18.036 62.632 38.732 86.358l-39.869 39.869c-8.311-.492-16.787 2.431-23.137 8.782-11.788 11.788-11.788 30.899 0 42.687 11.788 11.788 30.899 11.788 42.687 0 6.35-6.35 9.273-14.826 8.782-23.137l41.428-41.428c21.096 14.657 45.827 24.448 72.572 27.737v44.892c-9.28 1.749-16.305 9.885-16.305 19.673 0 11.064 8.969 20.033 20.033 20.033h32.609c11.064 0 20.033-8.969 20.033-20.033 0-9.788-7.024-17.924-16.305-19.673V416.4c26.746-3.289 51.476-13.08 72.572-27.737l41.428 41.428c-.492 8.311 2.431 16.787 8.782 23.137 11.788 11.788 30.899 11.788 42.687 0 11.788-11.788 11.788-30.899 0-42.687-6.35-6.35-14.826-9.273-23.137-8.782l-39.869-39.869c20.696-23.726 34.618-53.515 38.732-86.358h44.566c1.749 9.28 9.885 16.305 19.673 16.305h0c11.064 0 20.033-8.969 20.033-20.033v-32.609c0-11.064-8.969-20.033-20.033-20.033z" style="stroke-width:20;stroke-linecap:round;stroke-linejoin:round;stroke-miterlimit:10;" fill="none" stroke="#000000" stroke-width="20" stroke-linecap="round" stroke-linejoin="round" stroke-miterlimit="10" data-original="#000000" class=""></path><path d="M230.807 194.65a31.56 31.56 0 0 1 .185 3.414c0 17.208-13.95 31.159-31.159 31.159s-31.159-13.95-31.159-31.159c0-.657.02-1.309.06-1.956" style="stroke-width:20;stroke-linecap:round;stroke-linejoin:round;stroke-miterlimit:10;" fill="none" stroke="#000000" stroke-width="20" stroke-linecap="round" stroke-linejoin="round" stroke-miterlimit="10" data-original="#000000" class=""></path><circle cx="311.167" cy="312.199" r="31.159" style="stroke-width:20;stroke-linecap:round;stroke-linejoin:round;stroke-miterlimit:10;" fill="none" stroke="#000000" stroke-width="20" stroke-linecap="round" stroke-linejoin="round" stroke-miterlimit="10" data-original="#000000" class=""></circle><circle cx="190.617" cy="315.008" r="20.033" style="stroke-width:20;stroke-linecap:round;stroke-linejoin:round;stroke-miterlimit:10;" fill="none" stroke="#000000" stroke-width="20" stroke-linecap="round" stroke-linejoin="round" stroke-miterlimit="10" data-original="#000000" class=""></circle><circle cx="320.383" cy="195.256" r="20.033" style="stroke-width:20;stroke-linecap:round;stroke-linejoin:round;stroke-miterlimit:10;" fill="none" stroke="#000000" stroke-width="20" stroke-linecap="round" stroke-linejoin="round" stroke-miterlimit="10" data-original="#000000" class=""></circle><path d="M264.189 245.986h0M138.154 265.592h0M253.686 365.72h0M374.82 267.692h0M267.69 147.259h0M199.833 166.906h0" style="stroke-width:20;stroke-linecap:round;stroke-linejoin:round;stroke-miterlimit:10;" fill="none" stroke="#000000" stroke-width="20" stroke-linecap="round" stroke-linejoin="round" stroke-miterlimit="10" data-original="#000000" class=""></path></g></svg>