<svg xmlns="http://www.w3.org/2000/svg" version="1.1" xmlns:xlink="http://www.w3.org/1999/xlink" width="512" height="512" x="0" y="0" viewBox="0 0 512 512" style="enable-background:new 0 0 512 512" xml:space="preserve" class=""><g><path fill="#61ff49" d="M256.085 11.791 240.3 12.999C199.487 58.125 92.041 188.293 82.011 318.117c-6.107 79.041 38.256 150.722 105.973 179.965 20.284 8.759 55.72 9.889 66.41 9.889 97.15 0 164.586-73.66 164.586-170.617 0-148.152-132.191-293.09-162.895-325.563z" opacity="1" data-original="#b8eb7c" class=""></path><path fill="#91ff80" d="M261.912 2.605a8.232 8.232 0 0 0-12.013-.005 654.851 654.851 0 0 0-9.599 10.399c48.717 56.119 148.473 186.403 148.473 312.418 0 96.956-79.008 175.46-176.155 174.639a174.789 174.789 0 0 1-24.634-1.975c20.27 8.745 42.684 13.711 66.41 13.911 97.146.821 176.155-77.683 176.155-174.639 0-148.151-137.933-302.275-168.637-334.748z" opacity="1" data-original="#98db7c" class=""></path><path fill="#000000" d="m323.384 358.951-16.518 2.128-23.605-18.217 19.932-25.341 38.931-6.097c.623-8.744-5.681-16.551-14.486-17.685l-6.841-.884.878-6.842c1.176-9.126-5.264-17.47-14.39-18.645-4.56-.59-8.93.728-12.304 3.332s-5.757 6.497-6.342 11.058l-2.128 16.518L256 321.824l-30.515-23.549-2.128-16.518a16.6 16.6 0 0 0-6.341-11.058 16.595 16.595 0 0 0-12.304-3.332c-9.126 1.176-15.565 9.52-14.39 18.645l.879 6.842-6.841.884c-8.804 1.134-15.109 8.941-14.485 17.685l42.959 4.206 15.905 27.233-23.605 18.217-16.518-2.128c-9.119-1.181-17.476 5.269-18.645 14.39-1.176 9.126 5.264 17.47 14.389 18.646l6.841.884-.879 6.842c-1.176 9.126 5.374 17.473 14.499 18.648l16.58-40.413 35.054-21.366 38.392 25.706 12.33 36.073c9.126-1.176 15.675-9.523 14.499-18.648l-.878-6.842 6.841-.884c9.126-1.176 15.565-9.52 14.39-18.646-1.169-9.121-9.526-15.57-18.645-14.39z" opacity="1" data-original="#615260" class=""></path><g fill="#4e3d4d"><path d="m228.738 342.863 13.626-10.516-27.061-20.884a16.62 16.62 0 0 0-11.833-3.391l-33.596 3.353c.023.324.054.634.096.96 1.169 9.121 9.526 15.57 18.645 14.389l16.518-2.128zM308.529 308.071a16.62 16.62 0 0 0-11.833 3.391l-81.384 62.809a16.65 16.65 0 0 0-6.352 11.109l-4.139 32.98a16.584 16.584 0 0 0 12.194-3.335 16.588 16.588 0 0 0 6.341-11.057l2.128-16.518L256 363.902l30.515 23.549 2.128 16.518a16.592 16.592 0 0 0 6.341 11.057 16.584 16.584 0 0 0 12.194 3.335l-4.139-32.98a16.645 16.645 0 0 0-6.352-11.109l-27.062-20.885 37.241-28.74 16.518 2.128c9.119 1.181 17.476-5.268 18.645-14.389.042-.326.073-.636.096-.96z" fill="#2f2f2f" opacity="1" data-original="#4e3d4d" class=""></path></g><path fill="#000000" d="m257.624 177.64-9.949-.623c-23.971 4.187-41.643 26.301-41.643 51.349v6.233a8.328 8.328 0 0 0 8.328 8.328h8.328c7.359 0 13.603 4.773 15.806 11.391 1.094 3.287 4.477 5.265 7.941 5.265h19.129c3.464 0 6.846-1.978 7.94-5.265 2.203-6.618 8.447-11.391 15.807-11.391l10.878-10.704c0-27.359-15.217-53.762-42.565-54.583zm-18.28 50.831a8.328 8.328 0 1 1 0-16.656 8.328 8.328 0 0 1 0 16.656zm33.312 0a8.328 8.328 0 1 1 0-16.656 8.329 8.329 0 0 1 0 16.656z" opacity="1" data-original="#615260" class=""></path><path fill="#2f2f2f" d="M257.536 176.327a98.374 98.374 0 0 0-3.073 0 48.369 48.369 0 0 0-6.788.69c23.588 4.001 41.637 24.527 41.637 49.255v16.656h8.328c4.6 0 8.328-3.729 8.328-8.328v-6.233c-.001-27.36-21.084-51.219-48.432-52.04z" opacity="1" data-original="#4e3d4d" class=""></path></g></svg>