<svg xmlns="http://www.w3.org/2000/svg" version="1.1" xmlns:xlink="http://www.w3.org/1999/xlink" width="512" height="512" x="0" y="0" viewBox="0 0 512 512" style="enable-background:new 0 0 512 512" xml:space="preserve" class=""><g><path d="M383.978 104.683h-52.46l55.584-80.194c4.967-7.172-.176-16.991-8.898-16.991H191.525a10.825 10.825 0 0 0-10.043 6.783l-63.508 157.808a10.83 10.83 0 0 0 10.043 14.868h59.782l-60.881 126.906c-3.442 7.177 1.796 15.506 9.761 15.506h61.437l-48.707 161.174a10.826 10.826 0 0 0 18.712 10.024L373.08 252.308c5.809-7.03.806-17.715-8.347-17.715h-60.49l88.25-112.396c5.556-7.074.515-17.514-8.515-17.514z" style="" fill="#3c32ff" data-original="#f2d422" opacity="1"></path><path d="M224.181 7.498h-32.655a10.825 10.825 0 0 0-10.043 6.783l-63.508 157.808a10.83 10.83 0 0 0 10.043 14.868H187.8l-60.881 126.906c-3.442 7.177 1.796 15.506 9.761 15.506h61.437L149.41 490.543a10.82 10.82 0 0 0 4.978 12.512c1.009-1.055-5.355 10.571 112.104-209.192a6.996 6.996 0 0 0-6.172-10.296h-55.68l73.485-130.051a6.997 6.997 0 0 0-6.093-10.441H214.26l59.715-125.57a6.996 6.996 0 0 0-6.321-10.003H224.18v-.004z" style="" fill="#5249ff" data-original="#f7ac16" class="" opacity="1"></path><path d="M383.983 97.185h-38.139l47.428-68.425C401.679 16.619 392.98 0 378.209 0H191.531c-7.517 0-14.189 4.506-16.999 11.482l-63.509 157.81c-4.839 12.032 4.033 25.162 16.999 25.162h47.868l-55.728 116.165c-5.837 12.167 3.035 26.247 16.521 26.247h51.338l-45.784 151.506c-2.516 8.325 1.223 17.348 8.889 21.454 7.605 4.073 17.149 2.334 22.783-4.487l83.321-100.924a7.5 7.5 0 0 0-11.566-9.547l-83.32 100.922c-2.286 2.766-6.803.397-5.753-3.079l48.707-161.174c1.453-4.809-2.15-9.668-7.177-9.668-66.712 0-62.904.594-64.254-1.555a3.308 3.308 0 0 1-.183-3.21l60.882-126.907c2.384-4.971-1.245-10.742-6.76-10.742h-59.782c-2.358 0-3.963-2.389-3.086-4.569C192.766 6.343 188.273 14.997 191.531 14.997h186.678c2.701 0 4.254 3.029 2.735 5.222l-55.584 80.194c-3.433 4.955.112 11.77 6.163 11.77h52.46c1.284 0 2.43.719 2.992 1.873 1.301 2.676 6.484-5.226-88.626 115.907-3.858 4.913-.343 12.129 5.898 12.129h60.49c1.283 0 2.464.749 3.008 1.903 1.287 2.731 7.974-6.655-105.817 131.174a7.5 7.5 0 0 0 11.566 9.547l105.371-127.631c4.496-5.441 5.458-13.086 2.447-19.482-3.01-6.384-9.517-10.508-16.574-10.508H319.67l78.725-100.265c9.393-11.958.856-29.645-14.412-29.645z" fill="#000000" opacity="1" data-original="#000000"></path></g></svg>