<?xml version="1.0" encoding="utf-8"?>
<svg xmlns="http://www.w3.org/2000/svg" viewBox="572.1943 38.7109 512 379.466" width="512px" height="379.466px">
  <g transform="matrix(1, 0, 0, 0.9999999999999999, 572.194313965069, -60.68611293452789)">
    <path fill="#ffcbb0ff" d="M405.102 471.363H24.066c-9.148 0-16.566-7.418-16.566-16.566v-248.5c0-54.895 44.504-99.399 99.398-99.399h298.204zm0 0" opacity="1" />
    <path fill="#ffffffff" d="M371.969 106.898c-54.899 0-99.403 44.504-99.403 99.403v27.133c0 3.312-2.683 6-6 6H46.633c-3.313 0-6-2.688-6-6V206.3c0-54.899 44.504-99.403 99.398-99.403zM272.566 311.7v120.53c0 3.317-2.683 6-6 6H46.633c-3.313 0-6-2.683-6-6V311.7c0-3.313 2.687-6 6-6h219.933c3.313 0 6 2.687 6 6zm0 0" opacity="1" />
    <path fill="#e19c71ff" d="M405.102 106.898c-54.899 0-99.403 44.504-99.403 99.403v248.496c0 9.152 7.418 16.57 16.57 16.57h165.665c9.148 0 16.566-7.418 16.566-16.57V206.3c0-54.899-44.504-99.403-99.398-99.403zm0 0" opacity="1" />
    <path fill="#e6e6e6" d="M471.367 233.434v-26.13c0-36.367-28.879-66.71-65.238-67.265-37.012-.562-67.297 29.375-67.297 66.258v27.137c0 3.312 2.688 6 6 6h120.535c3.313 0 6-2.688 6-6zM338.832 311.7v120.53c0 3.317 2.688 6 6 6h120.535c3.313 0 6-2.683 6-6V311.7c0-3.313-2.687-6-6-6H344.832c-3.312 0-6 2.687-6 6zm0 0" opacity="1" />
    <path fill="#e19c71ff" d="M140.031 272.566h66.27v49.7c0 18.296-14.836 33.132-33.133 33.132h-33.133v-82.832zm0 0" opacity="1" />
    <path fill="#f5f5f5" d="M173.168 272.566h-66.27v50.832c0 17.672 14.329 32 32 32h2.27c17.672 0 32-14.328 32-32zm0 0" opacity="1" />
    <g>
      <path d="M406.129 140.04a66.712 66.712 0 0 0-12.54 1.01c31.282 5.567 54.778 33.458 54.778 66.255v26.129c0 3.312-2.687 6-6 6h23c3.313 0 6-2.688 6-6v-26.13c0-36.367-28.879-66.71-65.238-67.265zM465.367 305.7h-23c3.313 0 6 2.687 6 6v120.53c0 3.317-2.687 6-6 6h23c3.313 0 6-2.683 6-6V311.7c0-3.313-2.687-6-6-6zM266.566 305.7h-23c3.317 0 6 2.687 6 6v120.53c0 3.317-2.683 6-6 6h23c3.317 0 6-2.683 6-6V311.7c0-3.313-2.687-6-6-6zM348.965 106.898c-54.899 0-99.402 44.504-99.402 99.403v27.133c0 3.312-2.684 6-6 6h23.003c3.317 0 6-2.688 6-6V206.3c0-54.899 44.504-99.403 99.403-99.403zm0 0" fill="#ffffff" opacity="1" />
    </g>
    <path d="M405.102 99.398H106.898C47.953 99.398 0 147.355 0 206.301v248.496c0 13.27 10.797 24.066 24.066 24.066h34.7c4.144 0 7.5-3.355 7.5-7.5a7.5 7.5 0 0 0-7.5-7.5h-34.7c-5 0-9.066-4.066-9.066-9.066v-174.73h84.398v18.132H40.633a7.5 7.5 0 0 0-7.5 7.5V438.23a7.5 7.5 0 0 0 7.5 7.5h231.933c4.145 0 7.5-3.355 7.5-7.5V305.7c0-4.145-3.355-7.5-7.5-7.5h-58.765v-18.134h84.398v174.73c0 3.208.637 6.267 1.778 9.067H88.77a7.5 7.5 0 0 0-7.5 7.5c0 4.145 3.355 7.5 7.5 7.5h399.164c13.27 0 24.066-10.797 24.066-24.066V206.3c0-58.946-47.953-106.903-106.898-106.903zM497 206.301v58.765H313.2v-58.765c0-50.676 41.226-91.903 91.898-91.903 50.675 0 91.902 41.227 91.902 91.903zm-179.598-91.903c-31.312 18.665-52.336 52.872-52.336 91.903v25.633H48.133V206.3c0-50.676 41.226-91.903 91.898-91.903zm-151.734 209c0 13.512-10.992 24.5-24.5 24.5h-2.27c-13.507 0-24.5-10.988-24.5-24.5v-43.332h51.27zm99.398-10.199V430.73H48.133V313.2h51.265v10.198c0 21.782 17.723 39.5 39.5 39.5h34.266c22.406 0 40.637-18.226 40.637-40.632v-9.067zm-66.265 9.067c0 14.132-11.5 25.632-25.633 25.632h-1.05c5.343-6.738 8.55-15.25 8.55-24.5v-43.332h18.133zm7.5-57.2H15v-58.765c0-40.805 26.734-75.477 63.602-87.438-27.48 19.364-45.47 51.336-45.47 87.438v33.133c0 1.988.79 3.894 2.196 5.3s3.317 2.2 5.305 2.2h231.933a7.5 7.5 0 0 0 7.5-7.5V206.3c0-40.805 26.735-75.477 63.602-87.438-27.48 19.364-45.469 51.336-45.469 87.438v58.765zm281.633 198.797H322.27c-5 0-9.07-4.066-9.07-9.066v-174.73H497v174.73c0 5-4.066 9.066-9.066 9.066zm0 0" fill="#000000" opacity="1"  class="hovered-path"/>
    <path d="M331.332 206.3v33.134c0 4.14 3.36 7.5 7.5 7.5h132.535c4.14 0 7.5-3.36 7.5-7.5V206.3c0-40.676-33.094-73.77-73.77-73.77-40.671 0-73.765 33.094-73.765 73.77zm132.535 0v25.634H346.332V206.3c0-32.406 26.363-58.77 58.77-58.77 32.402 0 58.765 26.364 58.765 58.77zM471.367 298.2H338.832a7.5 7.5 0 0 0-7.5 7.5v132.53a7.5 7.5 0 0 0 7.5 7.5h132.535a7.5 7.5 0 0 0 7.5-7.5V305.7a7.5 7.5 0 0 0-7.5-7.5zm-7.5 132.53H346.332V313.2h117" fill="#000000ff" opacity="1"  class="hovered-path"/>
  </g>
</svg>