<svg xmlns="http://www.w3.org/2000/svg" version="1.1" xmlns:xlink="http://www.w3.org/1999/xlink" width="512"
	height="512" x="0" y="0" viewBox="0 0 1707 1707" style="enable-background:new 0 0 512 512" xml:space="preserve"
	fill-rule="evenodd" class="">
	<g>
		<path
			d="M1258 1055h-81c-23 0-40-18-40-40s17-40 40-40h81c22 0 40 18 40 40s-18 40-40 40zm43 83c1-1 1-2 2-3v-2c7-13 20-21 36-21h43l132-584-300 349-1 1-1 1-1 1-1 1h-1v1h-1v1h-1l-1 1h-1v1h-2v1h-1l-1 1c-5 2-12 4-18 4h-2v-1h-2c-13-1-24-9-30-20l-101-187-1-1-176-324c-6 1-12 1-18 1s-12 0-17-1L558 870c-6 11-18 19-31 20h-2v1c-8 0-16-2-23-6v-1h-2v-1h-1l-6-6-94-109-207-240 133 584h880c22 0 40 18 40 40s-18 40-40 40H333v94h1041v-94h-35c-16 0-29-9-36-22 0-1-1-2-1-2v-1h-1v-2l-1-1v-3l-1-1v-16l1-1v-3l1-1zm-1048 18L103 498C45 490 0 441 0 381c0-65 53-118 118-118s118 53 118 118c0 21-6 40-16 57l146 170 19-75c-24-25-38-59-38-96 0-79 64-143 142-143 79 0 143 64 143 143 0 29-9 56-23 78l21 54 135-249c-18-21-29-49-29-79 0-65 52-117 117-117s118 52 118 117c0 30-11 58-30 79l136 249 27-70c-14-22-22-49-22-77 0-78 64-142 142-142 79 0 143 64 143 142 0 42-18 79-46 105l19 81 146-170c-9-17-15-36-15-57 0-65 53-118 118-118s118 53 118 118c0 60-45 109-104 117l-149 658v131c74 8 132 71 132 148 0 81-67 148-149 148H718c-22 0-40-18-40-40s18-40 40-40h719c38 0 69-31 69-68 0-38-31-69-69-69H269c-37 0-68 31-68 69 0 37 31 68 68 68h315c22 0 40 18 40 40s-18 40-40 40H269c-81 0-148-67-148-148 0-77 58-140 132-148zm591-878c6 2 13 2 19 0h1l1-1c15-4 26-19 26-36 0-20-17-37-38-37-20 0-37 17-37 37 0 17 10 31 25 36h1v1h1zm292 401 55 102 85-99-29-119c-7 1-15 2-23 2-19 0-38-4-55-11l-42 107zm432-267c4 3 8 5 13 6 3 0 5 1 8 1 21 0 38-17 38-38s-17-38-38-38-38 17-38 38c0 11 5 21 13 28v1h2v1h1v1zM475 498c5 1 9 1 14 1s10 0 15-1l1-1h2c9-3 18-8 26-15l1-1c11-11 18-27 18-44 0-35-28-63-63-63-34 0-62 28-62 63 0 22 11 41 29 52 3 3 7 4 11 6h1l1 1h2v1h3zm-45 184 85 99 65-120-36-92c-7 2-14 5-21 6-11 3-22 4-34 4-6 0-12 0-19-1h-3c-3-1-7-2-10-3zm790-197h7c3 0 6-1 9-1h1v-1h4v-1h2c25-8 44-32 44-60 0-34-28-62-63-62-34 0-62 28-62 62 0 33 24 59 56 62l1 1zM118 343c-21 0-38 17-38 38s17 38 38 38c3 0 5-1 8-1l1-1h2l2-1h1c14-6 24-20 24-35 0-21-17-38-38-38zm735 728c-100 0-181-82-181-182s81-182 181-182c101 0 182 82 182 182s-81 182-182 182zm0-284c-56 0-101 46-101 102s45 102 101 102 102-46 102-102-46-102-102-102zm450 348v-2zm-773-80h-81c-22 0-40-18-40-40s18-40 40-40h81c22 0 40 18 40 40s-18 40-40 40z"
			fill="#000000" opacity="1" data-original="#000000" class=""></path>
		<path fill="#ffffbd"
			d="M718 1503h719c38 0 69-31 69-68 0-38-31-69-69-69H269c-37 0-68 31-68 69 0 37 31 68 68 68h315c22 0 40 18 40 40h54c0-22 18-40 40-40z"
			opacity="1" data-original="#ffe177" class=""></path>
		<path fill="#ffffbd"
			d="M333 1286h1041v-94h-35c-16 0-29-9-36-22-2-7-5-7-4-24l2-8c1-1 1-2 2-3v-2c7-13 20-21 36-21h43l132-584-300 349c-18 21-52 18-65-7L871 358h-35L558 870c-14 25-48 28-65 7L192 528l133 584h880c22 0 40 18 40 40s-18 40-40 40H333zm925-231h-81c-23 0-40-18-40-40s17-40 40-40h81c22 0 40 18 40 40s-18 40-40 40zm-405 16c-100 0-181-82-181-182s81-182 181-182c101 0 182 82 182 182s-81 182-182 182zm-323-16h-81c-22 0-40-18-40-40s18-40 40-40h81c22 0 40 18 40 40s-18 40-40 40z"
			opacity="1" data-original="#f9bd5f" class=""></path>
		<path fill="#ffffbd" d="M752 889c0 56 45 102 101 102s102-46 102-102-46-102-102-102-101 46-101 102z" opacity="1"
			data-original="#ff8086" class=""></path>
		<g fill="#f9bd5f">
			<path
				d="M475 498c20 4 43-1 58-16 41-41 11-108-44-108-62 0-86 82-33 115zM132 416c14-6 24-20 24-35 0-21-17-38-38-38s-38 17-38 38c0 32 36 44 52 35zM853 204c-44 0-52 63-9 74 23 6 47-11 47-37 0-20-17-37-38-37zM1224 360c-34 0-62 28-62 62s26 61 58 63c35 2 67-26 67-63 0-34-28-62-63-62zM1589 343c-35 0-52 45-24 67l3 2c25 17 59-1 59-31 0-21-17-38-38-38z"
				fill="#ffffbd" opacity="1" data-original="#f9bd5f" class=""></path>
		</g>
		<path fill="#ffffbd"
			d="m1276 682-29-119c-27 4-54 1-78-9l-42 107 9 18 55 102zM580 661l-36-92c-28 11-59 13-87 6l-27 107 85 99z"
			opacity="1" data-original="#ffe177" class=""></path>
	</g>
</svg>