<svg xmlns="http://www.w3.org/2000/svg" version="1.1" xmlns:xlink="http://www.w3.org/1999/xlink" width="512" height="512" x="0" y="0" viewBox="0 0 32 32" style="enable-background:new 0 0 512 512" xml:space="preserve"><g><circle cx="10.5" cy="15" r="2.5" fill="#686564" opacity="1" ></circle><path fill="#e84545ff" d="M8 22.94v4.56a.5.5 0 0 0 .5.5h1a.5.5 0 0 0 .5-.5c0-1.378 1.122-2.5 2.5-2.5s2.5 1.122 2.5 2.5a.5.5 0 0 0 .5.5h1a.5.5 0 0 0 .5-.5c0-1.378 1.122-2.5 2.5-2.5s2.5 1.122 2.5 2.5a.5.5 0 0 0 .5.5h1a.5.5 0 0 0 .5-.5v-4.56c0-.245.089-.48.251-.663 1.879-2.12 2.852-4.863 2.74-7.725-.223-5.669-4.838-10.3-10.508-10.542-3.043-.129-5.909.953-8.093 3.046A10.906 10.906 0 0 0 5 15c0 2.693.976 5.277 2.749 7.277A.996.996 0 0 1 8 22.94zM21.5 10.5c2.481 0 4.5 2.019 4.5 4.5s-2.019 4.5-4.5 4.5S17 17.481 17 15s2.019-4.5 4.5-4.5zm-4.605 9.053 1 2A1 1 0 0 1 17 23h-2a1 1 0 0 1-.895-1.447l1-2c.339-.678 1.451-.678 1.79 0zM6 15c0-2.481 2.019-4.5 4.5-4.5S15 12.519 15 15s-2.019 4.5-4.5 4.5S6 17.481 6 15z" opacity="1" ></path><circle cx="21.5" cy="15" r="2.5" fill="#686564" opacity="1" ></circle><path d="M15 15c0-2.481-2.019-4.5-4.5-4.5S6 12.519 6 15s2.019 4.5 4.5 4.5S15 17.481 15 15zm-7 0c0-1.378 1.122-2.5 2.5-2.5S13 13.622 13 15s-1.122 2.5-2.5 2.5S8 16.378 8 15zM21.5 19.5c2.481 0 4.5-2.019 4.5-4.5s-2.019-4.5-4.5-4.5S17 12.519 17 15s2.019 4.5 4.5 4.5zm0-7c1.378 0 2.5 1.122 2.5 2.5s-1.122 2.5-2.5 2.5S19 16.378 19 15s1.122-2.5 2.5-2.5z" fill="#000000" opacity="1" ></path><path d="M6 27.5C6 28.878 7.122 30 8.5 30h1c1.378 0 2.5-1.122 2.5-2.5a.5.5 0 0 1 1 0c0 1.378 1.122 2.5 2.5 2.5h1c1.378 0 2.5-1.122 2.5-2.5a.5.5 0 0 1 1 0c0 1.378 1.122 2.5 2.5 2.5h1c1.378 0 2.5-1.122 2.5-2.5v-4.189c2.058-2.465 3.117-5.587 2.989-8.837-.263-6.703-5.719-12.176-12.421-12.462-3.579-.155-6.98 1.125-9.563 3.6S3 11.421 3 15c0 3.052 1.063 5.988 3 8.311zM5 15c0-3.028 1.204-5.85 3.39-7.944 2.185-2.093 5.05-3.174 8.094-3.045 5.669.242 10.285 4.872 10.508 10.542.112 2.862-.86 5.605-2.74 7.725a.988.988 0 0 0-.252.662v4.56a.5.5 0 0 1-.5.5h-1a.5.5 0 0 1-.5-.5c0-1.378-1.122-2.5-2.5-2.5S17 26.122 17 27.5a.5.5 0 0 1-.5.5h-1a.5.5 0 0 1-.5-.5c0-1.378-1.122-2.5-2.5-2.5S10 26.122 10 27.5a.5.5 0 0 1-.5.5h-1a.5.5 0 0 1-.5-.5v-4.56a.998.998 0 0 0-.251-.663A10.953 10.953 0 0 1 5 15z" fill="#000000" opacity="1" ></path><path d="M14.149 22.526c.183.294.504.474.851.474h2a1 1 0 0 0 .895-1.447l-1-2c-.339-.678-1.45-.678-1.789 0l-1 2a1 1 0 0 0 .043.973z" fill="#000000" opacity="1" ></path></g></svg>