<svg xmlns="http://www.w3.org/2000/svg" version="1.1" xmlns:xlink="http://www.w3.org/1999/xlink" width="512" height="512" x="0" y="0" viewBox="0 0 60 53" style="enable-background:new 0 0 512 512" xml:space="preserve"><g><g fill="none" fill-rule="nonzero"><path fill="#a1d3e1ff" d="M30 33.43V46H15a31.11 31.11 0 0 0-.34-3.84L15 42a150.672 150.672 0 0 0 15-8.57z" opacity="1" ></path><path fill="#658e96ff" d="M27 35.328V46h3V33.43c-1.02.664-2.023 1.297-3 1.898z" opacity="1" ></path><path fill="#ffffff" d="M48.07 17.91C43.54 23.868 36.3 29.312 30 33.43a149.963 149.963 0 0 1-15.34 8.73 56.154 56.154 0 0 0-1.42-7.01c10.293-5.839 22.3-13.921 30.3-22.51a15.266 15.266 0 0 0 4.53 5.27z" opacity="1" ></path><path fill="#ffffff" d="M43.54 12.64c-.587.63-1.2 1.256-1.829 1.88a15.059 15.059 0 0 0 3.359 3.39C40.54 23.868 33.3 29.312 27 33.43c-4.325 2.815-9.078 5.52-12.532 7.324.093.464.157.934.192 1.406A149.963 149.963 0 0 0 30 33.43c6.3-4.118 13.54-9.562 18.07-15.52a15.266 15.266 0 0 1-4.53-5.27z" opacity="1" ></path><path fill="#a1d3e1ff" d="M23.49 28.88c-3.91 2.57-7.5 4.71-10.25 6.27-.34-1.3-.75-2.68-1.24-4.15a60.366 60.366 0 0 1-2.59-11.6c.89-.417 1.737-.92 2.53-1.5a59.6 59.6 0 0 0 11.55 10.98z" opacity="1" ></path><path fill="#e8e8e8" d="M18.35 1.07C15.15.79-.46.4 1.11 19.97c.057.668.63 1.17 1.3 1.14 9.567-.441 16.51-7.287 16.51-19.4a.633.633 0 0 0-.57-.64z" opacity="1" ></path><path fill="#bebebe" d="M18.35 1.07a21.034 21.034 0 0 0-3.205-.016l.205.016c.327.033.575.31.57.64 0 9.61-4.5 17.539-14.273 19.16.22.163.489.247.763.24 9.552-.44 16.51-7.254 16.51-19.4a.633.633 0 0 0-.57-.64z" opacity="1" ></path><path fill="#a1d3e1ff" d="M45.34 42.16A31.11 31.11 0 0 0 45 46H30V33.43A150.672 150.672 0 0 0 45 42z" opacity="1" ></path><path fill="#658e96ff" d="M45 42a150.672 150.672 0 0 1-15-8.57v1.9C36.647 39.422 42 42 42 42l.34.16A31.11 31.11 0 0 0 42 46h3a31.11 31.11 0 0 1 .34-3.84z" opacity="1" ></path><path fill="#ffffff" d="M46.76 35.15a59.194 59.194 0 0 0-1.41 6.9.448.448 0 0 0-.01.11L45 42a150.672 150.672 0 0 1-15-8.57c2.14-1.4 4.35-2.93 6.51-4.55 3.91 2.57 7.51 4.71 10.25 6.27z" opacity="1" ></path><path fill="#cacaca" d="M36.51 28.88c-.47.352-.946.682-1.42 1.026 3.295 2.115 6.3 3.9 8.67 5.244a60.453 60.453 0 0 0-1.21 5.607C44.082 41.557 45 42 45 42l.34.16a.448.448 0 0 1 .01-.11c.333-2.326.803-4.63 1.41-6.9-2.74-1.56-6.34-3.7-10.25-6.27z" opacity="1" ></path><path fill="#a1d3e1ff" d="M50.68 19.44h-.1A60.369 60.369 0 0 1 48 31c-.49 1.47-.9 2.85-1.24 4.15-2.74-1.56-6.34-3.7-10.25-6.27a60.515 60.515 0 0 0 11.56-10.97 15.57 15.57 0 0 0 2.61 1.53z" opacity="1" ></path><path fill="#658e96ff" d="M48.07 17.91c-.311.409-.643.816-.981 1.222.2.1.393.216.591.308h-.1A60.369 60.369 0 0 1 45 31c-.308.923-.573 1.8-.82 2.653.92.543 1.789 1.047 2.58 1.5.34-1.3.75-2.68 1.24-4.15a60.369 60.369 0 0 0 2.58-11.56h.1a15.57 15.57 0 0 1-2.61-1.533z" opacity="1" ></path><path fill="#3f4e51ff" d="M47.13 52H12.87a.994.994 0 0 1-.83-1.55L15 46h30l2.96 4.45a.994.994 0 0 1-.83 1.55z" opacity="1" ></path><path fill="#424242" d="M47.96 50.45 45 46h-3l2.96 4.45a.994.994 0 0 1-.83 1.55h3a.994.994 0 0 0 .83-1.55z" opacity="1" ></path><path fill="#ffffff" d="M30 24.38c-2.2 1.61-4.4 3.12-6.51 4.5A59.6 59.6 0 0 1 11.94 17.9a15.142 15.142 0 0 0 4.52-5.27A95.725 95.725 0 0 0 30 24.38z" opacity="1" ></path><path fill="#a1d3e1ff" d="M30 15v9.38a95.725 95.725 0 0 1-13.54-11.75c1.565-3.143 2.4-6.6 2.44-10.11A12.667 12.667 0 0 0 30 15z" opacity="1" ></path><path fill="#658e96ff" d="M18.9 2.52a26.9 26.9 0 0 1-1.046 6.659C19.4 11.729 22.135 14.184 27 15v7.114c1 .773 2 1.533 3 2.266V15A12.667 12.667 0 0 1 18.9 2.52z" opacity="1" ></path><path fill="#5a5a5a" d="M41.1 2.52A12.667 12.667 0 0 1 30 15 12.667 12.667 0 0 1 18.9 2.52 20.541 20.541 0 0 0 29.5 6s.18 0 .5-.01c.32.01.5.01.5.01a20.541 20.541 0 0 0 10.6-3.48z" opacity="1" ></path><path fill="#424242" d="M37.937 4.274A12.381 12.381 0 0 1 28.5 14.667c.48.125.971.244 1.5.333A12.667 12.667 0 0 0 41.1 2.52a18.48 18.48 0 0 1-3.163 1.754z" opacity="1" ></path><path fill="#e8e8e8" d="M58.89 19.97a1.247 1.247 0 0 1-1.3 1.14c-9.476-.442-16.51-7.177-16.51-19.4a.633.633 0 0 1 .57-.64c3.2-.28 18.81-.67 17.24 18.9z" opacity="1" ></path><path fill="#bebebe" d="M41.855 1.054c5.589.391 15.289 3.286 14.035 18.916a1.206 1.206 0 0 1-.533.9c.739.124 1.485.205 2.233.242.67.03 1.243-.472 1.3-1.14C60.43.774 45.448.783 41.855 1.054z" opacity="1" ></path><path fill="#a1d3e1ff" d="M43.54 12.64A96.875 96.875 0 0 1 30 24.38V15A12.667 12.667 0 0 0 41.1 2.52c.04 3.514.873 6.974 2.44 10.12z" opacity="1" ></path><path fill="#ffffff" d="M5.362 13.146a1 1 0 0 0 1.241-.68A8.821 8.821 0 0 1 8.522 8.9 8.884 8.884 0 0 1 13.1 6.4a1 1 0 1 0-.467-1.944 10.843 10.843 0 0 0-5.578 3.087 10.785 10.785 0 0 0-2.369 4.362 1 1 0 0 0 .676 1.241z" opacity="1" ></path><g fill="#000"><path d="M.114 20.054a2.234 2.234 0 0 0 2.237 2.054h.1c2.1-.102 4.172-.534 6.138-1.279a61.081 61.081 0 0 0 2.458 10.49 55.486 55.486 0 0 1 2.941 14.392l-2.788 4.18A2 2 0 0 0 12.868 53h34.264a2 2 0 0 0 1.668-3.109l-2.789-4.183a55.429 55.429 0 0 1 2.941-14.392A61.135 61.135 0 0 0 51.4 20.825a20.082 20.082 0 0 0 6.141 1.28h.105a2.234 2.234 0 0 0 2.237-2.055c.557-6.925-.924-12.187-4.4-15.639C50.705-.329 43.618-.1 41.559.076a1.651 1.651 0 0 0-1.467 1.907A19.869 19.869 0 0 1 30.5 5h-1a19.868 19.868 0 0 1-9.593-3.017A1.653 1.653 0 0 0 18.44.076C16.387-.1 9.3-.329 4.517 4.414 1.038 7.866-.443 13.128.114 20.054zm10.38-.082c.415-.217.83-.457 1.242-.72a59.887 59.887 0 0 0 10.03 9.556 187.407 187.407 0 0 1-7.91 4.837c-.274-.966-.57-1.95-.908-2.962a59.4 59.4 0 0 1-2.454-10.711zm8.678-11.83A13.363 13.363 0 0 0 29 15.827v6.558a93.648 93.648 0 0 1-11.323-9.912 21.142 21.142 0 0 0 1.495-4.331zm23.151 4.33A94.247 94.247 0 0 1 31 22.383v-6.577a13.38 13.38 0 0 0 9.828-7.665c.34 1.494.841 2.946 1.495 4.331zM15.96 45c-.034-.544-.1-1.307-.212-2.254 1.341-.663 6.887-3.465 13.252-7.487V45zM31 35.259c6.364 4.022 11.911 6.824 13.252 7.487-.115.947-.178 1.71-.212 2.254H31zm13.555 5.4a155.453 155.453 0 0 1-12.727-7.247c1.648-1.1 3.226-2.215 4.717-3.32 3.6 2.346 6.8 4.252 9.061 5.547a61.277 61.277 0 0 0-1.051 5.023zM35.91 28.08c-2 1.5-4.169 3.015-6.455 4.512a154.907 154.907 0 0 1-14.01 8.07 61.282 61.282 0 0 0-1.051-5.02 186.28 186.28 0 0 0 9.644-5.925 152.052 152.052 0 0 0 6.554-4.531A101.636 101.636 0 0 0 43.337 14.3a16 16 0 0 0 3.313 3.778A60.887 60.887 0 0 1 35.91 28.08zM16.661 14.3A98.565 98.565 0 0 0 28.3 24.36a146.72 146.72 0 0 1-4.768 3.287 59.4 59.4 0 0 1-10.177-9.572 16.009 16.009 0 0 0 3.306-3.775zM12.868 51l2.667-4h28.93l2.667 4zm34.184-20.316c-.338 1.012-.634 2-.908 2.961a187.71 187.71 0 0 1-7.909-4.836 60.361 60.361 0 0 0 10.034-9.554c.409.261.821.5 1.232.715a59.291 59.291 0 0 1-2.449 10.714zm7.022-24.851c3.042 3.019 4.326 7.749 3.818 14.06a.234.234 0 0 1-.258.214c-4.564-.1-15.15-2.38-15.545-18.066 2.199-.141 8.055-.109 11.985 3.792zM30.5 7a21.593 21.593 0 0 0 9.4-2.573c-.535 2.946-2.532 8.237-9.9 9.55-7.37-1.313-9.367-6.6-9.9-9.55A21.593 21.593 0 0 0 29.5 7zM5.926 5.833C9.247 2.537 13.942 2 16.645 2c.5 0 .925.018 1.266.041-.3 12.121-7.01 17.685-15.545 18.066-.179-.012-.248-.09-.258-.214-.508-6.311.776-11.041 3.818-14.06z" fill="#000000" opacity="1" ></path><path d="M5.362 13.146a1 1 0 0 0 1.241-.68A8.821 8.821 0 0 1 8.522 8.9 8.884 8.884 0 0 1 13.1 6.4a1 1 0 1 0-.467-1.944 10.843 10.843 0 0 0-5.578 3.087 10.785 10.785 0 0 0-2.369 4.362 1 1 0 0 0 .676 1.241z" fill="#000000" opacity="1" ></path></g></g></g></svg>