<svg xmlns="http://www.w3.org/2000/svg" version="1.1" xmlns:xlink="http://www.w3.org/1999/xlink" width="40px"
  height="40px" x="0" y="0" viewBox="0 0 480.056 480.056" style="enable-background:new 0 0 512 512" xml:space="preserve"
  class="hovered-paths">
  <g>
    <circle cx="240.056" cy="240.028" r="232" fill="#3b81f7" opacity="1" data-original="#d6f4fc" class="hovered-path">
    </circle>
    <g fill="#3b81f7">
      <path
        d="M345.096 134.988c69.86 22.07 126.96 62.86 126.96 105.04s-57.1 82.97-126.96 105.04c22.497-71.122 22.525-138.87 0-210.08z"
        fill="#3b81f7" opacity="1" data-original="#3b81f7" class=""></path>
      <path
        d="M240.056 8.028c128.13 0 232 103.87 232 232 0-42.18-57.1-82.97-126.96-105.04-22.07-69.86-62.86-126.96-105.04-126.96zM472.056 240.028c0 128.13-103.87 232-232 232 42.18 0 82.97-57.1 105.04-126.96 69.86-22.07 126.96-62.86 126.96-105.04z"
        fill="#3b81f7" opacity="1" data-original="#3b81f7" class=""></path>
    </g>
    <path
      d="M240.056.028C175.95.028 115.681 24.992 70.35 70.322c-93.796 93.796-93.804 245.607 0 339.411 45.33 45.33 105.599 70.294 169.706 70.294 132.647 0 240-107.341 240-240 0-132.646-107.341-239.999-240-239.999zm-96.292 359.28c48.209 11.307 101.81 13.525 151.183 7.349a8 8 0 0 0 6.945-8.931c-.548-4.383-4.544-7.501-8.931-6.945-49.84 6.235-105.225 3.684-154.416-9.241-16.386-62.361-16.936-138.575.002-203.03 62.597-16.45 138.832-16.855 203 .001 21.394 81.156 16.203 188.616-22.304 261.842-53.527 101.787-137.105 76.825-175.479-41.045zm215.575-215.571c46.26 15.061 104.717 47.678 104.717 96.291 0 20.225-10.907 40.223-31.543 57.831-18.28 15.599-43.387 28.756-73.169 38.426 14.298-60.992 14.29-131.757-.005-192.548zm97.53 39.925c-25.239-28.741-65.717-47.459-102.329-58.131-3.236-11.069-6.951-21.735-11.157-31.9a7.999 7.999 0 0 0-10.451-4.333 7.999 7.999 0 0 0-4.333 10.451c2.799 6.766 5.356 13.783 7.707 20.99-60.309-14.137-130.961-14.439-192.541.002 15.06-46.256 47.677-104.712 96.289-104.712 104.054-.001 191.758 71.315 216.815 167.633zM183.69 23.214c-28.779 25.273-47.48 65.796-58.125 102.306-19.918 5.808-38.384 13.172-54.845 21.989a8 8 0 0 0 7.555 14.105c12.932-6.926 27.202-12.906 42.504-17.89-14.096 60.092-14.512 130.732-.003 192.596-46.265-15.062-104.72-47.681-104.72-96.292 0-104.052 71.315-191.756 167.634-216.814zM23.242 296.394c25.247 28.749 65.734 47.463 102.319 58.129 10.671 36.605 29.396 77.087 58.129 102.319-78.303-20.371-140.077-82.145-160.448-160.448zm273.18 160.447c28.742-25.24 47.463-65.722 58.136-102.345 45.604-13.28 80.975-33.835 102.375-58.337-20.308 78.415-82.13 140.291-160.511 160.682z"
      fill="#000000" opacity="1" data-original="#000000" class=""></path>
  </g>
</svg>