<svg xmlns="http://www.w3.org/2000/svg" version="1.1" xmlns:xlink="http://www.w3.org/1999/xlink" width="40px"
  height="40px" x="0" y="0" viewBox="0 0 64 64" style="enable-background:new 0 0 512 512" xml:space="preserve" class="">
  <g>
    <g data-name="Layer 32">
      <path
        d="m61.215 31.725-3.77-2.693A5.839 5.839 0 0 1 55 24.281v-2.857C55 10.58 46.545 1.359 35.706 1.011A19.946 19.946 0 0 0 15.2 18.963l-.6 6.067v.027a5.916 5.916 0 0 1-2.422 4.249l-3.393 2.419A4.263 4.263 0 0 0 7 35.193a4.263 4.263 0 0 0 6.567 3.586l1.105-.711a25.932 25.932 0 0 1-9.682 21.74L1 63h30.905A23.2 23.2 0 0 0 55 42v-4.143l1.433.921A4.262 4.262 0 0 0 63 35.193a4.263 4.263 0 0 0-1.785-3.468Z"
        style="" fill="#ffffff" data-original="#dbe6fd" class="" opacity="1"></path>
      <path
        d="M49 10.405a.5.5 0 0 1-.393-.191 17.987 17.987 0 0 0-3.892-3.67.5.5 0 0 1 .57-.822A19.007 19.007 0 0 1 49.393 9.6a.5.5 0 0 1-.393.809Z"
        style="" fill="#ffffff" data-original="#ffffff" class=""></path>
      <path
        d="M31.905 60a14.991 14.991 0 0 1-14.584-18.3l.062-.293a1.818 1.818 0 0 0-2.357-2.062 1.582 1.582 0 0 1-.317.081A25.923 25.923 0 0 1 4.99 59.808L1 63h30.905A23.2 23.2 0 0 0 55 42v-3a23.2 23.2 0 0 1-23.095 21ZM12.755 39.178A4.233 4.233 0 0 1 10 35.193a4.263 4.263 0 0 1 1.785-3.468l3.315-2.371a6.015 6.015 0 0 0 2.49-4.3v-.027l.607-6.067A19.94 19.94 0 0 1 36.466 1.074c-.254-.018-.5-.055-.76-.064A19.948 19.948 0 0 0 15.2 18.963l-.6 6.067v.027a6.015 6.015 0 0 1-2.49 4.3l-3.325 2.368A4.263 4.263 0 0 0 7 35.193a4.259 4.259 0 0 0 5.755 3.985Z"
        style="" fill="#d5d5d5" data-original="#bbcff2" class="" opacity="1"></path>
      <ellipse cx="26" cy="18" rx="3" ry="5" style="" fill="#000000" data-original="#927def" class="" opacity="1">
      </ellipse>
      <path
        d="M26 13a2.927 2.927 0 0 0-2.422 2.071A1.835 1.835 0 0 1 24 15c1.657 0 3 2.239 3 5a7.393 7.393 0 0 1-.578 2.929C27.877 22.585 29 20.521 29 18c0-2.761-1.343-5-3-5Z"
        style="" fill="#ffffff" data-original="#6e5eb3" class="" opacity="1"></path>
      <ellipse cx="44" cy="18" rx="3" ry="5" style="" fill="#000000" data-original="#927def" class="" opacity="1">
      </ellipse>
      <path
        d="M44 13a2.927 2.927 0 0 0-2.422 2.071A1.835 1.835 0 0 1 42 15c1.657 0 3 2.239 3 5a7.393 7.393 0 0 1-.578 2.929C45.877 22.585 47 20.521 47 18c0-2.761-1.343-5-3-5Z"
        style="" fill="#ffffff" data-original="#6e5eb3" class="" opacity="1"></path>
      <path d="M42 36c0 1.657-3.134 0-7 0s-7 1.657-7 0 3.134-5 7-5 7 3.343 7 5Z" style="" fill="#000000"
        data-original="#927def" class="" opacity="1"></path>
      <path
        d="M35 31a8.147 8.147 0 0 0-6.419 3.477A7.762 7.762 0 0 1 33 33a8.144 8.144 0 0 1 6.46 3.536c1.551.28 2.54.395 2.54-.536 0-1.657-3.134-5-7-5Z"
        style="" fill="#ffffff" data-original="#6e5eb3" class="" opacity="1"></path>
      <path
        d="m61.8 30.912-3.77-2.694A4.847 4.847 0 0 1 56 24.281v-2.857a21.8 21.8 0 0 0-2.378-9.879 1 1 0 1 0-1.781.91A19.8 19.8 0 0 1 54 21.424v2.857a6.847 6.847 0 0 0 2.864 5.564l3.77 2.694A3.269 3.269 0 0 1 62 35.193a3.262 3.262 0 0 1-5.026 2.745l-1.433-.921a1 1 0 0 0-1.541.84v4.048A22.109 22.109 0 0 1 31.905 62H3.851l1.764-1.411A26.975 26.975 0 0 0 15.67 38.011a1 1 0 0 0-1.539-.784l-1.105.711A3.262 3.262 0 0 1 8 35.193a3.269 3.269 0 0 1 1.366-2.654l3.386-2.419a6.933 6.933 0 0 0 2.84-4.991l.607-6.067A19 19 0 0 1 35.674 2.01 18.7 18.7 0 0 1 50.059 9.6a1 1 0 0 0 1.6-1.2A20.692 20.692 0 0 0 35.739.011a21 21 0 0 0-21.531 18.852l-.608 6.095a4.918 4.918 0 0 1-2.009 3.534L8.2 30.912A5.272 5.272 0 0 0 6 35.193a5.262 5.262 0 0 0 7.712 4.658 24.968 24.968 0 0 1-9.346 19.175L.375 62.219A1 1 0 0 0 1 64h30.905A24.117 24.117 0 0 0 56 42v-2.313a5.262 5.262 0 0 0 8-4.494 5.271 5.271 0 0 0-2.2-4.281Z"
        fill="#000000" opacity="1" data-original="#000000" class=""></path>
      <path
        d="M26 12c-2.243 0-4 2.636-4 6s1.757 6 4 6 4-2.636 4-6-1.757-6-4-6Zm0 10c-.944 0-2-1.71-2-4s1.056-4 2-4 2 1.71 2 4-1.056 4-2 4ZM48 18c0-3.364-1.757-6-4-6s-4 2.636-4 6 1.757 6 4 6 4-2.636 4-6Zm-6 0c0-2.29 1.056-4 2-4s2 1.71 2 4-1.056 4-2 4-2-1.71-2-4ZM31.087 37.453A21.6 21.6 0 0 1 35 37a21.6 21.6 0 0 1 3.913.453 12.833 12.833 0 0 0 2.133.281 2.057 2.057 0 0 0 1.381-.419A1.636 1.636 0 0 0 43 36c0-2.314-3.661-6-8-6s-8 3.686-8 6a1.636 1.636 0 0 0 .573 1.315c.769.64 1.927.429 3.514.138ZM35 32a6.953 6.953 0 0 1 5.952 3.737 15.225 15.225 0 0 1-1.679-.251A23.283 23.283 0 0 0 35 35a23.283 23.283 0 0 0-4.273.486 15.225 15.225 0 0 1-1.679.251A6.953 6.953 0 0 1 35 32Z"
        fill="#000000" opacity="1" data-original="#000000" class=""></path>
    </g>
  </g>
</svg>