<svg xmlns="http://www.w3.org/2000/svg" version="1.1" xmlns:xlink="http://www.w3.org/1999/xlink" width="40px"
  height="40px" x="0" y="0" viewBox="0 0 511.998 511.998" style="enable-background:new 0 0 512 512" xml:space="preserve"
  class="">
  <g>
    <path
      d="M404.677 236.671V195.33l-33.342 5.343-29.328-56.67 10-25.327-42.67-20.671-48.006 21.999-27.999-7.328-33.999-19.343-35.327 20 14 27.342-43.326 63.326-33.999-10.671 8.656 38.67-13.999 39.326 67.997 212.663 192-4.672 58.669-207.991z"
      style="" fill="#3b81f7" data-original="#656d78" class="" opacity="1"></path>
    <path
      d="m214.676 84.677-13.343-51.998L80.682 68.678l6.656 16-40.654 27.999-29.344 33.327v15.999s10.672 3.328 10.672 5.328-15.999 79.998-15.999 79.998v16.67l61.997-40.67s16-33.999 18-33.327 45.326 7.328 45.326 7.328l39.342-60.654-14.671-21.343 29.999-15.999 22.67-14.657z"
      style="" fill="#3b81f7" data-original="#aab2bc" class="" opacity="1"></path>
    <path
      d="M302.338 274.669c-3-1-3.672-16.999-3.672-16.999l55.341-71.34-18.999-31.655-56.326 75.997L247.331 236l-30.655-39.67-44.67-41.655-17.327 33.327 56.326 65.326 1.672 22.67-92.997 49.327 12.656 40.999 106.34-68.654 37.662 4 102.995 55.998 15-32.343c0-.001-88.995-49.656-91.995-50.656z"
      style="" fill="#3b81f7" data-original="#f6bb42" class="" opacity="1"></path>
    <path
      d="m298.666 84.677 13.343-51.998L432.66 68.678l-6.656 16 40.655 27.999 29.343 33.327v15.999s-10.672 3.328-10.672 5.328 16 79.998 16 79.998v16.67l-61.999-40.67s-15.999-33.999-17.999-33.327-45.327 7.328-45.327 7.328l-39.341-60.654 14.671-21.343-29.999-15.999-22.67-14.657z"
      style="" fill="#3b81f7" data-original="#aab2bc" class="" opacity="1"></path>
    <path
      d="M287.713 267.311c0 17.062-13.828 30.89-30.897 30.89-17.046 0-30.874-13.828-30.874-30.89s13.828-30.889 30.874-30.889c17.069-.001 30.897 13.827 30.897 30.889z"
      style="" fill="#3b81f7" data-original="#ed5564" class="" opacity="1"></path>
    <path
      d="M509.829 227.656c-2.688-22.577-7.53-40.811-14.468-54.436l9.312-3.094c5.405-1.797 8.437-7.515 6.905-12.999-6.344-22.625-23.952-43.311-52.311-61.498-6.578-4.219-12.953-7.781-18.594-10.703l1.406-.703c3.609-1.812 5.891-5.5 5.891-9.546s-2.281-7.734-5.906-9.547c-3.172-1.562-78.137-38.717-132.041-43.732a10.68 10.68 0 0 0-11.39 8.266L285.93 85.865c-1.062 4.719 1.172 9.562 5.453 11.796l1.812.953c-11.891 4.734-24.897 8.078-37.991 8.078-12.78 0-25.39-3.218-36.905-7.812l2.312-1.219a10.638 10.638 0 0 0 5.453-11.796l-12.702-56.201a10.68 10.68 0 0 0-11.391-8.266C148.082 26.414 73.085 63.568 69.929 65.13a10.675 10.675 0 0 0-.015 19.093l1.406.703c-5.641 2.922-12.015 6.484-18.593 10.703C24.371 113.817 6.763 134.503.419 157.128c-1.531 5.484 1.5 11.202 6.906 12.999l9.312 3.094C9.7 186.846 4.857 205.079 2.169 227.657-.362 248.937.013 266.186.028 266.921a10.686 10.686 0 0 0 5.672 9.171 10.68 10.68 0 0 0 5 1.25c2.016 0 4.015-.578 5.765-1.719l63.139-40.654a10.726 10.726 0 0 0 2.969-2.844l15.405-22.03c3.359 8.249 3.656 17.28.922 27.295-3.546 12.984-11.046 22.514-11.108 22.577a10.697 10.697 0 0 0-1.828 10.031c42.045 128.276 63.481 211.788 63.7 212.616a10.663 10.663 0 0 0 10.328 8.031h191.984c4.875 0 9.141-3.312 10.344-8.031.203-.828 21.654-84.34 63.685-212.616a10.696 10.696 0 0 0-1.828-10.031c-.062-.094-7.328-9.327-10.938-21.999-2.859-10.062-2.578-19.375.812-27.811l15.375 21.967a10.726 10.726 0 0 0 2.969 2.844l63.139 40.654a10.537 10.537 0 0 0 5.766 1.719c1.719 0 3.438-.422 4.999-1.25a10.685 10.685 0 0 0 5.672-9.171c.014-.734.389-17.983-2.142-39.264zm-62.076-114.089c22.672 14.562 33.999 28.655 39.593 39.858L377.661 189.97l-33.279-49.92 13.984-13.937 57.997-29.014c6.157 2.578 18.391 8.125 31.39 16.468zm-95.215 323.752H159.429c-4.844-17.233-11.297-39.623-19.343-66.355l106.73-62.64c2.952.641 6.015 1 9.171 1 3.141 0 6.219-.359 9.172-1l106.738 62.64c-8.062 26.732-14.515 49.122-19.359 66.355zM107.899 268.436c3.344-5.125 8.296-13.89 11.343-24.624 3.641-12.781 3.734-24.968.406-36.249l15.656 5.218c1.125.375 2.25.562 3.375.562 3.5 0 6.859-1.718 8.874-4.75l2.953-4.438 56.295 59.81-85.2 47.092a5162.782 5162.782 0 0 0-13.702-42.621zm64.685-97.403 56.123 62.873c-3.953 3.281-7.281 7.281-9.844 11.766l-56.216-59.732 9.937-14.907zm176.751 14.906-56.231 59.732a42.748 42.748 0 0 0-9.828-11.766l56.122-62.873 9.937 14.907zm-72.013 80.715c0 11.78-9.569 21.343-21.335 21.343-11.765 0-21.327-9.562-21.327-21.343 0-11.749 9.562-21.311 21.327-21.311 11.766 0 21.335 9.562 21.335 21.311zm-149.205 65.17 88.449-48.874a42.535 42.535 0 0 0 8.703 13.281l-91.559 53.732c-1.796-5.874-3.671-11.92-5.593-18.139zm158.58-35.593a42.58 42.58 0 0 0 8.719-13.281l88.448 48.874a3599.125 3599.125 0 0 0-5.594 18.14l-91.573-53.733zm106.027-52.419c3.062 10.734 8.016 19.499 11.359 24.624a4229.623 4229.623 0 0 0-13.703 42.623l-85.214-47.092 56.31-59.81 2.969 4.438a10.646 10.646 0 0 0 8.873 4.75c1.125 0 2.266-.188 3.359-.562l15.641-5.203c-3.329 11.264-3.219 23.466.406 36.232zM317.306 43.82c32.576 5.125 72.137 20.967 95.417 31.249l-60.56 30.296-43.623-22.796 8.766-38.749zm-71.99 83.7v32.483c0 5.906 4.78 10.671 10.671 10.671 5.891 0 10.656-4.766 10.656-10.671v-32.655c18.366-2.031 35.788-8.688 50.459-16.25l17.124 8.968-11.109 11.062a10.672 10.672 0 0 0-1.344 13.469l5.406 8.093-64.192 71.903a43.18 43.18 0 0 0-7-.594c-2.391 0-4.719.219-7 .594l-64.169-71.888 5.406-8.109a10.65 10.65 0 0 0-1.344-13.469l-11.109-11.062 16.656-8.718c14.703 7.688 32.264 14.344 50.889 16.173zm-50.623-83.7 8.765 38.748-43.623 22.796-60.561-30.311c23.265-10.266 62.811-26.109 95.419-31.233zM95.65 97.099l57.981 29.014 13.983 13.937-4.78 7.172c-.25.328-.469.656-.672 1l-21.687 32.53c-.188.25-.359.531-.516.781l-5.625 8.438-109.713-36.562c15.188-30.796 57.576-50.654 71.029-56.31zM66.291 218.172l-44.436 28.609c1.297-20.781 5.281-49.264 15.312-66.701l45.232 15.078-16.108 23.014zm101.918 251.131c-.75-2.828-1.703-6.406-2.875-10.656h181.298c-1.156 4.25-2.125 7.828-2.875 10.656H168.209zm277.497-251.131-16.108-23.014 45.233-15.078c10.03 17.437 14.015 45.92 15.312 66.701l-44.437-28.609z"
      fill="#000000" opacity="1" data-original="#000000" class=""></path>
  </g>
</svg>