<svg xmlns="http://www.w3.org/2000/svg" version="1.1" xmlns:xlink="http://www.w3.org/1999/xlink" width="40px"
  height="40px" x="0" y="0" viewBox="0 0 120 120" style="enable-background:new 0 0 512 512" xml:space="preserve"
  class="">
  <g>
    <path fill="#ffffff"
      d="M80.763 41.724c-4.132-6.418-3.5-14.129 1.028-20.418 5.303-7.364 10.222-11.015 16.351-8.53 8.892 4.508 9.937 19.899 8.092 27.993-.319 1.401-1.537 2.541-2.903 2.155-7.71-2.183-8.52-24.296-22.568-1.2z"
      opacity="1" data-original="#099718"></path>
    <path fill="#ffffff"
      d="M57.82 51.319C64.29 19.704 80.75 7.906 99 14.985c-24.538-1.28-23.379 65.732-22.303 86.945.14 2.743-2.015 5.07-4.74 5.07H57.572c-2.485 0-4.522-1.957-4.555-4.463-.111-8.662.231-28.874 4.804-51.218zM40.142 41.724c4.274-6.418 3.62-14.129-1.064-20.418-5.486-7.364-10.574-11.015-16.915-8.53-9.198 4.508-10.28 19.899-8.37 27.993.33 1.401 1.59 2.541 3.003 2.155 7.975-2.183 8.813-24.296 23.346-1.2z"
      opacity="1" data-original="#005513" class=""></path>
    <path fill="#ffffff"
      d="M62.285 52.096C55.956 21.49 39.854 10.069 22 16.92c25.604 0 22.434 63.814 20.973 84.177A4.57 4.57 0 0 0 47.539 106h14.99c2.43 0 4.423-1.895 4.455-4.321.11-8.385-.226-27.952-4.699-49.583z"
      opacity="1" data-original="#12a521" class=""></path>
    <path fill="#ffffff"
      d="M40.218 71.627c2.993-4.644 1.964-10.604-1.217-15.01-3.782-5.24-7.294-7.834-11.668-6.062-6.344 3.213-7.102 21.552-5.793 28.728.212 1.165 1.253 2.122 2.26 1.543 5.429-3.123 6.475-25.532 16.418-9.199z"
      opacity="1" data-original="#099718"></path>
    <path fill="#ffffff"
      d="M61.195 81.824C56.21 57.42 40.597 45.314 27 53.595c14.668 0 15.82 40.425 15.91 49.744.009.932.745 1.661 1.656 1.661h15.32a.86.86 0 0 0 .152-.01c.67-.123 5.529-1.756 1.157-23.166zM78.076 69.94c-3.492-4.495-2.28-10.242 1.417-14.509 4.39-5.065 7.876-7.612 12.972-5.9 9.975 3.037 9.268 20.877 7.422 27.82-.297 1.118-1.509 2.04-2.682 1.48-6.326-3.018-7.544-24.677-19.13-8.89z"
      opacity="1" data-original="#005513" class=""></path>
    <path fill="#ffffff"
      d="M57.995 82.824C62.66 58.42 77.274 46.314 90 54.595c-11.884-3.175-14.524 40.108-14.858 49.747-.033.931-.73 1.658-1.583 1.658H56.306s-1.37-7.172 1.69-23.176z"
      opacity="1" data-original="#12a521" class=""></path>
    <path fill="#000000" fill-rule="evenodd"
      d="M80.173 46.887c.674-3.065 1.371-5.19 3.376-7.613 7.87-9.512 11.378-4.172 15.083 1.47 2.058 3.133 4.177 6.36 7.137 7.186 1.651.461 3.345-1.26 3.731-2.93 2-19-1.751-34.53-19.556-34.603-12.32-.05-23.071 8.855-29.667 27.01-6.596-18.155-17.348-27.06-29.668-27.01C12.805 10.471 7.5 27.5 11.276 45.362c.386 1.67 1.857 3.03 3.508 2.568 2.96-.827 5.08-4.053 7.137-7.186 3.705-5.642 7.213-10.982 15.083-1.47 2.072 2.504 2.756 4.751 3.444 7.922-19.68-7.011-26.094 17.64-22.522 33.092.386 1.67 1.857 3.029 3.508 2.568 2.96-.827 5.08-4.053 7.137-7.186 2.447-3.726 4.807-7.32 8.396-6.593 4.398 12.968 5.201 28.08 5.333 35.935.046 2.761 2.254 4.988 5.016 4.988h25.29a4.977 4.977 0 0 0 4.98-5.351c-.802-10.998 1.28-23.14 4.497-33.603 4.938-3.11 7.744 1.163 10.674 5.624 2.057 3.133 4.176 6.36 7.136 7.186 1.651.461 3.123-.898 3.509-2.568 2.913-12.605-.119-34.037-15.947-35.233-2.45-.186-4.894.102-7.282.832zM65.419 58.204c1.75-2.366 3.637-4.414 5.622-6.12 1.785-10.92 4.788-21.962 10.602-31.477-10.706 6.165-14.961 20.695-17.285 31.897.382 1.918.735 3.82 1.06 5.7zm24.519-3.09c-1.639 2.056-3.064 4.377-4.305 6.873 4.158.12 7.766 2.45 10.4 5.548-.465-3.735-1.58-11.252-6.095-12.422zM53.066 102h-2.839c-.23-6.972-.995-17.485-3.493-27.86-1.453-6.038-3.638-12.655-7.047-18.57 8.882 4.65 13.573 15.473 16.03 24.62C55 83.5 53.065 97.5 53.065 102zM29.782 55.156c1.455 1.833 2.74 3.874 3.879 6.06-3.359.668-6.186 2.754-8.367 5.32.494-3.97 1.495-8.534 4.488-11.38zm28.608 9.711c-2.502-4.83-5.47-8.825-8.732-11.875-1.761-11.227-4.773-22.608-10.748-32.385C49.65 26.79 53.9 41.382 56.218 52.617a226.668 226.668 0 0 1 2.172 12.25zM24.353 19.305c-4.02 2.32-5.175 8.016-5.709 12.305 3.566-4.194 9.03-6.66 14.518-4.978-1.523-2.755-4.707-8.74-8.809-7.327zm63.039 7.327c1.523-2.755 4.706-8.74 8.808-7.327 4.021 2.32 5.175 8.016 5.709 12.305-3.566-4.194-9.03-6.66-14.517-4.978zM63.022 84.17c2.171-10.387 6.898-23.323 16.976-28.6-3.409 5.915-5.593 12.532-7.047 18.57-2.497 10.375-3.262 20.888-3.493 27.86h-8.371c-.247-2.81-.077-8.209 1.934-17.83z"
      clip-rule="evenodd" opacity="1" data-original="#000000" class=""></path>
  </g>
</svg>