<svg xmlns="http://www.w3.org/2000/svg" version="1.1" xmlns:xlink="http://www.w3.org/1999/xlink" width="40px"
  height="40px" x="0" y="0" viewBox="0 0 512 512" style="enable-background:new 0 0 512 512" xml:space="preserve"
  class="">
  <g>
    <path
      d="M392.328 178.826v.328L303.17 207.33l17.118 54.158a19.181 19.181 0 0 0 18.289 13.4h.727c4.704 0 8.865 3.049 10.283 7.534a10.785 10.785 0 0 0 10.283 7.534h65.184c4.704 0 8.865-3.049 10.283-7.534l.104-.328a10.785 10.785 0 0 1 10.283-7.534h.357a19.182 19.182 0 0 0 18.289-13.4l17.118-54.158-89.16-28.176z"
      style="" fill="#3b81f7" data-original="#cccccc" class="" opacity="1"></path>
    <path
      d="M489.292 176.122c9.684-16.605 15.227-35.922 15.208-56.536C504.444 57.583 454.312 7.5 392.31 7.5c-61.961 0-112.19 50.229-112.19 112.19 0 20.644 5.578 39.985 15.307 56.6 2.448 4.181 1.709 9.499-1.7 12.941-4.575 4.62-7.274 11.099-6.823 18.167.801 12.549 11.547 22.157 24.121 22.157h22.25a14.846 14.846 0 0 1 14.156 10.374l.063.2c.081.257.169.511.263.761 2.038 5.414 7.391 8.859 13.176 8.859h62.428c4.342 0 8.535-1.914 11.145-5.383a14.785 14.785 0 0 0 2.284-4.438c0-5.729 4.644-10.374 10.374-10.374h26.432c12.574 0 23.32-9.607 24.121-22.156.451-7.07-2.249-13.549-6.825-18.17-3.46-3.492-4.077-8.859-1.6-13.106z"
      style="" fill="#3b81f7" data-original="#f2f2f2" class="" opacity="1"></path>
    <path
      d="M418.825 10.649A112.756 112.756 0 0 0 392.309 7.5c-61.961 0-112.19 50.229-112.19 112.19 0 20.644 5.578 39.985 15.307 56.6 2.448 4.181 1.709 9.499-1.7 12.941-4.575 4.62-7.274 11.099-6.823 18.167.801 12.549 11.547 22.157 24.121 22.157h22.25a14.846 14.846 0 0 1 14.156 10.374l.063.2c.081.257.169.511.263.761 2.038 5.414 7.391 8.859 13.176 8.859h52.731a15.116 15.116 0 0 1-5.161-7.396l-.065-.204a15.147 15.147 0 0 0-14.442-10.581H370.81c-13.289 0-24.162-10.873-24.162-24.162 0-6.568 2.658-12.544 6.95-16.909 3.487-3.546 4.307-8.969 1.794-13.261-9.923-16.948-15.613-36.676-15.613-57.733.001-50.848 33.168-93.947 79.046-108.854z"
      style="" fill="#3b81f7" data-original="#e2e2e2" class="" opacity="1"></path>
    <path
      d="m374.179 187.813 10.935-17.424c3.33-5.306 11.062-5.306 14.392 0l10.935 17.424c3.551 5.658-.516 13.012-7.196 13.012h-21.87c-6.681 0-10.748-7.354-7.196-13.012z"
      style="" fill="#3b81f7" data-original="#625ac5" class="" opacity="1"></path>
    <circle cx="340.638" cy="145.168" r="26.818" style="" fill="#3b81f7" data-original="#736acc" class="" opacity="1">
    </circle>
    <circle cx="443.982" cy="145.168" r="26.818" style="" fill="#3b81f7" data-original="#736acc" class="" opacity="1">
    </circle>
    <path
      d="M335.214 145.168c0-11.008 6.635-20.462 16.121-24.594a26.716 26.716 0 0 0-10.697-2.224c-14.811 0-26.818 12.007-26.818 26.818 0 14.811 12.007 26.818 26.818 26.818 3.803 0 7.419-.796 10.697-2.224-9.486-4.133-16.121-13.587-16.121-24.594zM438.557 145.168c0-11.008 6.635-20.462 16.121-24.594a26.716 26.716 0 0 0-10.697-2.224c-14.811 0-26.818 12.007-26.818 26.818 0 14.811 12.007 26.818 26.818 26.818 3.803 0 7.419-.796 10.697-2.224-9.486-4.133-16.121-13.587-16.121-24.594z"
      style="" fill="#3b81f7" data-original="#625ac5" class="" opacity="1"></path>
    <path
      d="M119.708 178.826v.328L30.55 207.33l17.118 54.158a19.181 19.181 0 0 0 18.289 13.4h.727c4.704 0 8.865 3.049 10.283 7.534a10.785 10.785 0 0 0 10.283 7.534h65.184c4.704 0 8.865-3.049 10.283-7.534l.104-.328a10.785 10.785 0 0 1 10.283-7.534h.356a19.182 19.182 0 0 0 18.289-13.4l17.118-54.158-89.159-28.176z"
      style="" fill="#3b81f7" data-original="#cccccc" class="" opacity="1"></path>
    <path
      d="M216.672 176.122c9.684-16.605 15.227-35.922 15.208-56.536C231.824 57.583 181.692 7.5 119.69 7.5 57.729 7.5 7.5 57.729 7.5 119.69c0 20.644 5.578 39.985 15.307 56.6 2.448 4.181 1.709 9.499-1.7 12.941-4.575 4.62-7.274 11.099-6.823 18.167.801 12.549 11.547 22.157 24.121 22.157h22.25a14.846 14.846 0 0 1 14.156 10.374l.063.2c.081.257.169.511.263.761 2.038 5.414 7.391 8.859 13.176 8.859h62.428c4.342 0 8.535-1.914 11.145-5.383a14.785 14.785 0 0 0 2.284-4.438c0-5.729 4.644-10.374 10.374-10.374h26.432c12.574 0 23.32-9.607 24.121-22.156.451-7.07-2.249-13.549-6.825-18.17-3.46-3.492-4.077-8.859-1.6-13.106z"
      style="" fill="#3b81f7" data-original="#f2f2f2" class="" opacity="1"></path>
    <path
      d="M146.205 10.649A112.756 112.756 0 0 0 119.689 7.5C57.729 7.5 7.5 57.729 7.5 119.69c0 20.644 5.578 39.985 15.307 56.6 2.448 4.181 1.709 9.499-1.7 12.941-4.575 4.62-7.274 11.099-6.823 18.167.801 12.549 11.547 22.157 24.121 22.157h22.25a14.846 14.846 0 0 1 14.156 10.374l.063.2c.081.257.169.511.263.761 2.038 5.414 7.391 8.859 13.176 8.859h52.731a15.116 15.116 0 0 1-5.161-7.396l-.065-.204a15.147 15.147 0 0 0-14.442-10.581H98.191c-13.289 0-24.162-10.873-24.162-24.162 0-6.568 2.658-12.544 6.95-16.909 3.487-3.546 4.307-8.969 1.794-13.261-9.923-16.948-15.613-36.676-15.613-57.733 0-50.848 33.167-93.947 79.045-108.854z"
      style="" fill="#3b81f7" data-original="#e2e2e2" class="" opacity="1"></path>
    <path
      d="m101.559 187.813 10.935-17.424c3.33-5.306 11.062-5.306 14.392 0l10.935 17.424c3.551 5.658-.516 13.012-7.196 13.012h-21.87c-6.68 0-10.747-7.354-7.196-13.012z"
      style="" fill="#3b81f7" data-original="#625ac5" class="" opacity="1"></path>
    <circle cx="68.018" cy="145.168" r="26.818" style="" fill="#3b81f7" data-original="#736acc" class="" opacity="1">
    </circle>
    <circle cx="171.362" cy="145.168" r="26.818" style="" fill="#3b81f7" data-original="#736acc" class="" opacity="1">
    </circle>
    <path
      d="M62.594 145.168c0-11.008 6.635-20.462 16.121-24.594a26.716 26.716 0 0 0-10.697-2.224c-14.811 0-26.818 12.007-26.818 26.818s12.007 26.818 26.818 26.818c3.803 0 7.419-.796 10.697-2.224-9.486-4.133-16.121-13.587-16.121-24.594zM165.938 145.168c0-11.008 6.635-20.462 16.121-24.594a26.716 26.716 0 0 0-10.697-2.224c-14.811 0-26.818 12.007-26.818 26.818s12.007 26.818 26.818 26.818c3.803 0 7.419-.796 10.697-2.224-9.487-4.133-16.121-13.587-16.121-24.594z"
      style="" fill="#3b81f7" data-original="#625ac5" class="" opacity="1"></path>
    <path
      d="M256 357.016v.435l-118.325 37.393 22.718 71.875a25.455 25.455 0 0 0 24.272 17.783h.965a14.312 14.312 0 0 1 13.647 9.999 14.313 14.313 0 0 0 13.647 9.999h86.508a14.312 14.312 0 0 0 13.647-9.999l.138-.436a14.313 14.313 0 0 1 13.647-9.999h.473a25.456 25.456 0 0 0 24.272-17.784l22.718-71.875L256 357.016z"
      style="" fill="#3b81f7" data-original="#cccccc" class="" opacity="1"></path>
    <path
      d="M384.685 353.426c12.852-22.038 20.208-47.673 20.183-75.03-.075-82.286-66.606-148.754-148.892-148.753-82.23 0-148.891 66.661-148.891 148.892 0 27.398 7.403 53.065 20.314 75.116 3.249 5.549 2.268 12.606-2.257 17.175-6.071 6.132-9.654 14.729-9.055 24.111 1.063 16.654 15.324 29.405 32.012 29.405h29.528a19.703 19.703 0 0 1 18.787 13.767l.084.266c.108.341.225.678.35 1.01 2.705 7.185 9.809 11.757 17.486 11.757h82.851c5.762 0 11.327-2.54 14.791-7.144a19.613 19.613 0 0 0 3.031-5.89c0-7.603 6.164-13.767 13.767-13.767h35.079c16.688 0 30.949-12.75 32.012-29.404.599-9.382-2.984-17.982-9.057-24.114-4.592-4.637-5.411-11.76-2.123-17.397z"
      style="" fill="#3b81f7" data-original="#3b81f7" class=""></path>
    <path
      d="M291.166 133.822a149.696 149.696 0 0 0-35.19-4.18c-82.23 0-148.891 66.661-148.891 148.892 0 27.398 7.403 53.065 20.314 75.116 3.249 5.549 2.268 12.606-2.257 17.175-6.071 6.132-9.654 14.729-9.055 24.111 1.063 16.654 15.324 29.405 32.012 29.405h29.528a19.703 19.703 0 0 1 18.787 13.767l.084.266c.108.341.225.678.35 1.01 2.705 7.185 9.809 11.757 17.486 11.757h69.981a20.05 20.05 0 0 1-6.849-9.815l-.086-.271a20.1 20.1 0 0 0-19.166-14.043h-30.769c-17.636 0-32.066-14.43-32.066-32.067 0-8.717 3.527-16.647 9.224-22.44 4.628-4.706 5.716-11.903 2.381-17.599-13.17-22.492-20.721-48.674-20.721-76.62-.001-67.483 44.015-124.682 104.903-144.464z"
      style="" fill="#3b81f7" data-original="#f2f2f2" class="" opacity="1"></path>
    <path
      d="m231.913 368.942 14.512-23.123c4.42-7.042 14.681-7.042 19.1 0l14.512 23.123c4.713 7.509-.685 17.269-9.55 17.269h-29.025c-8.864 0-14.262-9.76-9.549-17.269z"
      style="" fill="#3b81f7" data-original="#625ac5" class="" opacity="1"></path>
    <circle cx="187.401" cy="312.346" r="35.591" style="" fill="#3b81f7" data-original="#736acc" class="" opacity="1">
    </circle>
    <circle cx="324.551" cy="312.346" r="35.591" style="" fill="#3b81f7" data-original="#736acc" class="" opacity="1">
    </circle>
    <path
      d="M180.202 312.346c0-14.609 8.805-27.156 21.395-32.639a35.455 35.455 0 0 0-14.196-2.952c-19.656 0-35.591 15.935-35.591 35.591s15.935 35.591 35.591 35.591c5.048 0 9.846-1.057 14.196-2.952-12.59-5.484-21.395-18.03-21.395-32.639zM317.353 312.346c0-14.609 8.805-27.156 21.395-32.639a35.455 35.455 0 0 0-14.196-2.952c-19.656 0-35.591 15.935-35.591 35.591s15.935 35.591 35.591 35.591c5.048 0 9.846-1.057 14.196-2.952-12.59-5.484-21.395-18.03-21.395-32.639z"
      style="" fill="#3b81f7" data-original="#625ac5" class="" opacity="1"></path>
    <path
      d="M299.435 56.736c-12.191 17.95-19.315 39.62-19.315 62.954 0 3.601.17 7.163.502 10.677M404.333 249.75h19.027c4.342 0 8.535-1.914 11.145-5.383a14.785 14.785 0 0 0 2.284-4.438v0c0-5.729 4.644-10.374 10.374-10.374h26.432c12.574 0 23.32-9.607 24.121-22.156.451-7.07-2.249-13.549-6.825-18.17-3.46-3.494-4.077-8.861-1.6-13.108 9.684-16.605 15.227-35.922 15.208-56.536C504.444 57.583 454.312 7.5 392.31 7.5c-27.792 0-53.223 10.106-72.82 26.842M407.25 289.956h17.804c4.704 0 8.865-3.049 10.283-7.534l.104-.328a10.785 10.785 0 0 1 10.283-7.534h.357a19.182 19.182 0 0 0 18.289-13.4l9.137-28.906"
      style="stroke-width:15;stroke-linecap:round;stroke-linejoin:round;stroke-miterlimit:10;" fill="none"
      stroke="#000000" stroke-width="15" stroke-linecap="round" stroke-linejoin="round" stroke-miterlimit="10"
      data-original="#000000" class=""></path>
    <path
      d="m375.192 186.198 9.922-15.809c3.33-5.306 11.062-5.306 14.392 0l10.935 17.424c3.551 5.658-.516 13.012-7.196 13.012h-18.078M314.479 139.232c2.701-11.955 13.388-20.882 26.159-20.882 14.811 0 26.818 12.007 26.818 26.818 0 8.636-4.082 16.319-10.423 21.224"
      style="stroke-width:15;stroke-linecap:round;stroke-linejoin:round;stroke-miterlimit:10;" fill="none"
      stroke="#000000" stroke-width="15" stroke-linecap="round" stroke-linejoin="round" stroke-miterlimit="10"
      data-original="#000000" class=""></path>
    <circle cx="443.982" cy="145.168" r="26.818"
      style="stroke-width:15;stroke-linecap:round;stroke-linejoin:round;stroke-miterlimit:10;" fill="none"
      stroke="#000000" stroke-width="15" stroke-linecap="round" stroke-linejoin="round" stroke-miterlimit="10"
      data-original="#000000" class=""></circle>
    <path
      d="m38.248 231.686 9.42 29.802a19.181 19.181 0 0 0 18.289 13.4h.727c4.704 0 8.865 3.049 10.283 7.534h0a10.785 10.785 0 0 0 10.283 7.534h19"
      style="stroke-width:15;stroke-linecap:round;stroke-linejoin:round;stroke-miterlimit:10;" fill="none"
      stroke="#000000" stroke-width="15" stroke-linecap="round" stroke-linejoin="round" stroke-miterlimit="10"
      data-original="#000000" class=""></path>
    <path
      d="M231.478 129.259c.269-3.188.405-6.414.402-9.673C231.824 57.583 181.692 7.5 119.69 7.5 57.729 7.5 7.5 57.729 7.5 119.69c0 20.644 5.578 39.985 15.307 56.6 2.448 4.181 1.709 9.499-1.7 12.941-4.575 4.62-7.274 11.099-6.823 18.167.801 12.549 11.547 22.157 24.121 22.157h22.25a14.846 14.846 0 0 1 14.156 10.374l.063.2c.081.257.169.511.263.761 2.038 5.414 7.391 8.859 13.176 8.859H108"
      style="stroke-width:15;stroke-linecap:round;stroke-linejoin:round;stroke-miterlimit:10;" fill="none"
      stroke="#000000" stroke-width="15" stroke-linecap="round" stroke-linejoin="round" stroke-miterlimit="10"
      data-original="#000000" class=""></path>
    <path
      d="M126.375 200.825h-17.62c-6.68 0-10.747-7.354-7.196-13.012l10.935-17.424c3.33-5.306 11.062-5.306 14.392 0l10.063 16.034"
      style="stroke-width:15;stroke-linecap:round;stroke-linejoin:round;stroke-miterlimit:10;" fill="none"
      stroke="#000000" stroke-width="15" stroke-linecap="round" stroke-linejoin="round" stroke-miterlimit="10"
      data-original="#000000" class=""></path>
    <circle cx="68.018" cy="145.168" r="26.818"
      style="stroke-width:15;stroke-linecap:round;stroke-linejoin:round;stroke-miterlimit:10;" fill="none"
      stroke="#000000" stroke-width="15" stroke-linecap="round" stroke-linejoin="round" stroke-miterlimit="10"
      data-original="#000000" class=""></circle>
    <path
      d="M155.389 166.712c-6.581-4.887-10.845-12.718-10.845-21.544 0-14.811 12.007-26.818 26.818-26.818 12.555 0 23.095 8.627 26.015 20.277M147.17 424.883l13.224 41.836a25.455 25.455 0 0 0 24.272 17.783h.965a14.312 14.312 0 0 1 13.647 9.999h0a14.313 14.313 0 0 0 13.647 9.999h86.508a14.312 14.312 0 0 0 13.647-9.999l.138-.436a14.313 14.313 0 0 1 13.647-9.999h.473a25.456 25.456 0 0 0 24.272-17.784l12.773-40.411"
      style="stroke-width:15;stroke-linecap:round;stroke-linejoin:round;stroke-miterlimit:10;" fill="none"
      stroke="#000000" stroke-width="15" stroke-linecap="round" stroke-linejoin="round" stroke-miterlimit="10"
      data-original="#000000" class=""></path>
    <path
      d="M119.843 377.934a31.166 31.166 0 0 0-3.756 17.002c1.063 16.654 15.324 29.405 32.012 29.405h29.528a19.703 19.703 0 0 1 18.787 13.767l.084.266c.108.341.225.678.35 1.01 2.705 7.185 9.809 11.757 17.486 11.757h82.851c5.762 0 11.327-2.54 14.791-7.144a19.613 19.613 0 0 0 3.031-5.89v0c0-7.603 6.164-13.767 13.767-13.767h35.079c16.688 0 30.949-12.75 32.012-29.404.599-9.382-2.984-17.982-9.057-24.114-4.592-4.637-5.411-11.759-2.124-17.397 12.852-22.038 20.208-47.673 20.183-75.03-.075-82.286-66.606-148.754-148.892-148.753-82.23 0-148.891 66.661-148.891 148.892 0 25.064 6.195 48.68 17.136 69.404"
      style="stroke-width:15;stroke-linecap:round;stroke-linejoin:round;stroke-miterlimit:10;" fill="none"
      stroke="#000000" stroke-width="15" stroke-linecap="round" stroke-linejoin="round" stroke-miterlimit="10"
      data-original="#000000" class=""></path>
    <path
      d="m231.913 368.942 14.512-23.123c4.42-7.042 14.681-7.042 19.1 0l14.512 23.123c4.713 7.509-.685 17.269-9.55 17.269h-29.025c-8.864 0-14.262-9.76-9.549-17.269z"
      style="stroke-width:15;stroke-linecap:round;stroke-linejoin:round;stroke-miterlimit:10;" fill="none"
      stroke="#000000" stroke-width="15" stroke-linecap="round" stroke-linejoin="round" stroke-miterlimit="10"
      data-original="#000000" class=""></path>
    <circle cx="187.401" cy="312.346" r="35.591"
      style="stroke-width:15;stroke-linecap:round;stroke-linejoin:round;stroke-miterlimit:10;" fill="none"
      stroke="#000000" stroke-width="15" stroke-linecap="round" stroke-linejoin="round" stroke-miterlimit="10"
      data-original="#000000" class=""></circle>
    <circle cx="324.551" cy="312.346" r="35.591"
      style="stroke-width:15;stroke-linecap:round;stroke-linejoin:round;stroke-miterlimit:10;" fill="none"
      stroke="#000000" stroke-width="15" stroke-linecap="round" stroke-linejoin="round" stroke-miterlimit="10"
      data-original="#000000" class=""></circle>
    <path d="M233.528 451.141v-21.795M277.977 451.141v-21.795"
      style="stroke-width:15;stroke-linecap:round;stroke-linejoin:round;stroke-miterlimit:10;" fill="none"
      stroke="#000000" stroke-width="15" stroke-linecap="round" stroke-linejoin="round" stroke-miterlimit="10"
      data-original="#000000" class=""></path>
  </g>
</svg>