<svg xmlns="http://www.w3.org/2000/svg" version="1.1" xmlns:xlink="http://www.w3.org/1999/xlink" width="40px"
  height="40px" x="0" y="0" viewBox="0 0 60 60" style="enable-background:new 0 0 512 512" xml:space="preserve" class="">
  <g>
    <g fill="none" fill-rule="evenodd">
      <path fill="#3b81f7"
        d="M44 34c0 1.29 1.67 3.42 1.23 5.58-.24 1.17-1.11 2.36-3.23 3.42-.9.45-2.77.32-3.59 1.06-.279.23-.431.58-.41.94v2a2.006 2.006 0 0 1-2 2H24a2.006 2.006 0 0 1-2-2v-2a1.182 1.182 0 0 0-.4-.94c-.82-.74-2.7-.61-3.6-1.06-2.12-1.06-2.99-2.25-3.23-3.42C14.33 37.42 16 35.29 16 34c0-2-2-3-2-7a19.784 19.784 0 0 1 .98-6.37 13.484 13.484 0 0 1 4.68-6.62A16.833 16.833 0 0 1 30 11a16.833 16.833 0 0 1 10.34 3.01 13.484 13.484 0 0 1 4.68 6.62A19.784 19.784 0 0 1 46 27c0 4-2 5-2 7z"
        opacity="1" data-original="#3b81f7" class=""></path>
      <path fill="#3b81f7"
        d="M46 27a19.784 19.784 0 0 0-.98-6.37 13.484 13.484 0 0 0-4.68-6.62A16.833 16.833 0 0 0 30 11c-.514 0-1.012.018-1.5.048a16.076 16.076 0 0 1 8.84 2.962 13.484 13.484 0 0 1 4.68 6.62A19.784 19.784 0 0 1 43 27c0 4-2 5-2 7 0 1.29 1.67 3.42 1.23 5.58-.24 1.17-1.11 2.36-3.23 3.42-.9.45-2.77.32-3.59 1.06-.279.23-.431.58-.41.94v2a2.006 2.006 0 0 1-2 2h3a2.006 2.006 0 0 0 2-2v-2c-.021-.36.131-.71.41-.94.82-.74 2.69-.61 3.59-1.06 2.12-1.06 2.99-2.25 3.23-3.42C45.67 37.42 44 35.29 44 34c0-2 2-3 2-7z"
        opacity="1" data-original="#dfc49c" class=""></path>
      <path fill="#3b81f7"
        d="M19.66 14.01a13.484 13.484 0 0 0-4.68 6.62l-3.73-3.73a2.976 2.976 0 0 0-3.26-.65 5 5 0 0 1-6.11-7.41 4.952 4.952 0 0 1 4.85-2.11 4.992 4.992 0 0 1 7.63-4.94 5.01 5.01 0 0 1 1.89 6.2 2.976 2.976 0 0 0 .65 3.26z"
        opacity="1" data-original="#3b81f7" class=""></path>
      <path fill="#3b81f7"
        d="M16.9 11.25a2.976 2.976 0 0 1-.65-3.26 5 5 0 0 0-6.093-6.758c.424.13.828.317 1.2.558a5.01 5.01 0 0 1 1.89 6.2 2.976 2.976 0 0 0 .65 3.26l2.76 2.76a13.053 13.053 0 0 0-3.785 4.515l2.108 2.105a13.484 13.484 0 0 1 4.68-6.62z"
        opacity="1" data-original="#dfc49c" class=""></path>
      <path fill="#3b81f7"
        d="M58.12 51.16a4.952 4.952 0 0 1-4.85 2.11 4.992 4.992 0 0 1-7.63 4.94 5.01 5.01 0 0 1-1.89-6.2 2.976 2.976 0 0 0-.65-3.26l-4.69-4.69c.82-.74 2.69-.61 3.59-1.06 2.12-1.06 2.99-2.25 3.23-3.42l3.52 3.52a2.976 2.976 0 0 0 3.26.65 5 5 0 0 1 6.11 7.41z"
        opacity="1" data-original="#3b81f7" class=""></path>
      <path fill="#3b81f7"
        d="M45.75 43.1a2.976 2.976 0 0 0 3.26.65c.138-.06.284-.095.426-.141a3.069 3.069 0 0 1-.686-.509l-3.52-3.52a3.852 3.852 0 0 1-1.079 1.92zM58.21 45.64a5 5 0 0 0-5.7-2.056 4.974 4.974 0 0 1 2.61 7.576 4.952 4.952 0 0 1-4.85 2.11 4.952 4.952 0 0 1-2.11 4.85c-.404.281-.848.5-1.317.648a4.989 4.989 0 0 0 6.427-5.5 4.992 4.992 0 0 0 4.94-7.63z"
        opacity="1" data-original="#dfc49c" class=""></path>
      <g fill="#3b81f7">
        <path
          d="M53.268 53.268a5.117 5.117 0 0 0-1.388-2.822M9.552 8.119a5.107 5.107 0 0 0-2.82-1.387M58.21 14.36a5.01 5.01 0 0 1-6.2 1.89 2.976 2.976 0 0 0-3.26.65l-3.73 3.73a13.484 13.484 0 0 0-4.68-6.62l2.76-2.76a2.976 2.976 0 0 0 .65-3.26 5 5 0 0 1 7.41-6.11 4.952 4.952 0 0 1 2.11 4.85 4.992 4.992 0 0 1 4.94 7.63z"
          fill="#3b81f7" opacity="1" data-original="#3b81f7" class=""></path>
      </g>
      <path fill="#3b81f7"
        d="M49.01 16.25a2.976 2.976 0 0 0-3.26.65l-1.625 1.625c.353.678.654 1.381.9 2.105l3.73-3.73c.204-.2.435-.372.686-.509-.147-.046-.293-.081-.431-.141zM58.12 8.84a4.952 4.952 0 0 0-4.85-2.11 4.989 4.989 0 0 0-6.427-5.5c.47.148.913.367 1.317.648a4.952 4.952 0 0 1 2.11 4.85 4.992 4.992 0 0 1 4.94 7.63 5.02 5.02 0 0 1-2.7 2.056 4.983 4.983 0 0 0 5.61-7.574z"
        opacity="1" data-original="#dfc49c" class=""></path>
      <path fill="#3b81f7"
        d="M16.9 48.75a2.976 2.976 0 0 0-.65 3.26 5 5 0 0 1-7.41 6.11 4.952 4.952 0 0 1-2.11-4.85 4.992 4.992 0 0 1-4.94-7.63 5.01 5.01 0 0 1 6.2-1.89 2.976 2.976 0 0 0 3.26-.65l3.52-3.52c.24 1.17 1.11 2.36 3.23 3.42.9.45 2.78.32 3.6 1.06z"
        opacity="1" data-original="#3b81f7" class=""></path>
      <path fill="#3b81f7"
        d="M4.99 43.75c.834.353 1.784.3 2.574-.141a5 5 0 0 0-3.072-.025c.169.046.335.102.498.166zM21.6 44.06c-.82-.74-2.7-.61-3.6-1.06-2.12-1.06-2.99-2.25-3.23-3.42l-1.921 1.92A7.9 7.9 0 0 0 15 43c.9.45 2.78.32 3.6 1.06l-4.7 4.69a2.976 2.976 0 0 0-.65 3.26 5.01 5.01 0 0 1-1.89 6.2 4.76 4.76 0 0 1-1.2.558 5 5 0 0 0 6.09-6.758 2.976 2.976 0 0 1 .65-3.26z"
        opacity="1" data-original="#dfc49c" class=""></path>
      <path fill="#3b81f7" d="M6.732 53.268a5.117 5.117 0 0 1 1.388-2.822" opacity="1" data-original="#3b81f7" class="">
      </path>
      <g fill="#000" fill-rule="nonzero">
        <path
          d="M30 36c-1.645 0-4 2.98-4 5.062-.018.611.271 1.19.77 1.544.41.27.894.408 1.385.394A3.929 3.929 0 0 0 30 42.52c.566.309 1.2.474 1.845.48.491.014.975-.123 1.385-.394.499-.353.788-.933.77-1.544C34 38.98 31.645 36 30 36zm.954 4.763a1 1 0 0 0-1.908 0c-.32.174-.681.254-1.044.23a4.914 4.914 0 0 1 2-2.979 4.918 4.918 0 0 1 2 2.98 1.905 1.905 0 0 1-1.048-.231zM28 33c0-2.816-3.226-5-6-5-2.5 0-4 1.869-4 5 0 2.505 1.869 4 5 4s5-1.495 5-4zm-5 2c-3 0-3-1.505-3-2 0-3 1.5-3 2-3 1.746 0 4 1.455 4 3 0 .495 0 2-3 2zM38 28c-2.774 0-6 2.184-6 5 0 2.505 1.869 4 5 4s5-1.495 5-4c0-3.131-1.495-5-4-5zm-1 7c-3 0-3-1.505-3-2 0-1.545 2.254-3 4-3 .495 0 2 0 2 3 0 .495 0 2-3 2z"
          fill="#000000" opacity="1" data-original="#000000" class=""></path>
        <path
          d="M51.613 17.168a6 6 0 0 0 7.331-8.894 5.946 5.946 0 0 0-4.628-2.59 5.992 5.992 0 0 0-9.225-4.73 6.029 6.029 0 0 0-2.259 7.434 1.983 1.983 0 0 1-.439 2.155L40.236 12.7A18.547 18.547 0 0 0 30 10a18.547 18.547 0 0 0-10.236 2.7l-2.153-2.152a1.986 1.986 0 0 1-.443-2.16A6.028 6.028 0 0 0 14.909.954a5.992 5.992 0 0 0-9.225 4.73 5.992 5.992 0 0 0-4.73 9.224 6.027 6.027 0 0 0 7.434 2.26 1.982 1.982 0 0 1 2.155.439l3.293 3.293A21.548 21.548 0 0 0 13 27a10.193 10.193 0 0 0 1.368 5.208c.353.537.57 1.152.632 1.792-.085.505-.24.995-.46 1.457a8.5 8.5 0 0 0-.808 3.746l-3.185 3.186a1.988 1.988 0 0 1-2.16.443 6 6 0 0 0-7.331 8.894 5.946 5.946 0 0 0 4.628 2.59 5.986 5.986 0 0 0 9.225 4.73 6.029 6.029 0 0 0 2.259-7.434 1.983 1.983 0 0 1 .438-2.154L21 46.071V47a3 3 0 0 0 3 3h12a3 3 0 0 0 3-3v-.936l3.389 3.389c.57.564.745 1.417.443 2.16a6.028 6.028 0 0 0 2.259 7.433 5.992 5.992 0 0 0 9.225-4.73 5.992 5.992 0 0 0 4.73-9.224 6.027 6.027 0 0 0-7.434-2.26 1.979 1.979 0 0 1-2.155-.439L46.268 39.2a8.5 8.5 0 0 0-.808-3.746c-.22-.46-.375-.95-.46-1.454.062-.64.279-1.255.632-1.792A10.193 10.193 0 0 0 47 27a21.548 21.548 0 0 0-.836-6.1l3.289-3.288a1.988 1.988 0 0 1 2.16-.444zm-39.66-.98a3.955 3.955 0 0 0-4.359-.856 4.031 4.031 0 0 1-4.968-1.521 3.992 3.992 0 0 1 3.955-6.092h.007c.855.124 1.65.515 2.269 1.118A1 1 0 1 0 10.248 7.4 6.061 6.061 0 0 0 7.68 5.925 3.911 3.911 0 0 1 9.413 2.7a3.959 3.959 0 0 1 4.4-.073 4.03 4.03 0 0 1 1.52 4.967 3.952 3.952 0 0 0 .861 4.364l1.969 1.968a14.051 14.051 0 0 0-3.569 4.9zm4.236 31.859a3.949 3.949 0 0 0-.857 4.359 4.031 4.031 0 0 1-1.52 4.968 3.992 3.992 0 0 1-6.093-3.954v-.007a4.1 4.1 0 0 1 1.116-2.271A1 1 0 0 0 7.4 49.75a6.07 6.07 0 0 0-1.477 2.57A3.911 3.911 0 0 1 2.7 50.587a3.955 3.955 0 0 1-.073-4.4 4.029 4.029 0 0 1 4.967-1.52 3.956 3.956 0 0 0 4.364-.861l2.484-2.484a7.5 7.5 0 0 0 3.111 2.578c.566.24 1.165.394 1.776.457.178.028.335.055.481.082zm31.858-4.235a3.95 3.95 0 0 0 4.359.856 4.032 4.032 0 0 1 4.968 1.521 3.956 3.956 0 0 1-.078 4.405 3.9 3.9 0 0 1-3.221 1.726 6.07 6.07 0 0 0-1.475-2.57 1 1 0 1 0-1.436 1.392 4.1 4.1 0 0 1 1.116 2.271v.007a3.992 3.992 0 0 1-6.093 3.954 4.03 4.03 0 0 1-1.52-4.967 3.952 3.952 0 0 0-.861-4.364l-3.61-3.61c.143-.027.3-.054.474-.081a6.182 6.182 0 0 0 1.776-.457 7.5 7.5 0 0 0 3.112-2.572zm-4.189-12.53A5.708 5.708 0 0 0 43 34a6.3 6.3 0 0 0 .6 2.2c.836 2.092 1.626 4.067-2.05 5.9-.388.137-.79.228-1.2.271C39.1 42.576 37 42.91 37 45v2a1 1 0 0 1-1 1h-1v-2a1 1 0 0 0-2 0v2h-2v-2a1 1 0 0 0-2 0v2h-2v-2a1 1 0 0 0-2 0v2h-1a1 1 0 0 1-1-1v-2c0-2.09-2.1-2.424-3.357-2.624a5.293 5.293 0 0 1-1.2-.271c-3.676-1.838-2.886-3.813-2.05-5.9A6.3 6.3 0 0 0 17 34a5.708 5.708 0 0 0-.858-2.718A8.2 8.2 0 0 1 15 27c0-9.533 5.468-15 15-15s15 5.467 15 15a8.2 8.2 0 0 1-1.142 4.282zm1.549-12.454a14.051 14.051 0 0 0-3.569-4.9l1.973-1.972a3.949 3.949 0 0 0 .857-4.359 4.031 4.031 0 0 1 1.52-4.968 3.957 3.957 0 0 1 4.406.078 3.905 3.905 0 0 1 1.726 3.218A6.061 6.061 0 0 0 49.752 7.4a1 1 0 1 0 1.391 1.436 4.093 4.093 0 0 1 2.269-1.115h.007a3.992 3.992 0 0 1 3.955 6.093 4.028 4.028 0 0 1-4.967 1.52 3.956 3.956 0 0 0-4.364.861z"
          fill="#000000" opacity="1" data-original="#000000" class=""></path>
      </g>
    </g>
  </g>
</svg>